<svg xmlns="http://www.w3.org/2000/svg" viewBox="0 0 41.26 44.4"><defs><style>.cls-1{fill:#7d4e24;}.cls-2{fill:#6d4220;}.cls-3{fill:#a06232;}.cls-4{fill:#9e6b57;}.cls-5{fill:#c59575;}.cls-6{fill:#fff;}.cls-7{fill:#f1f2f2;}</style></defs><title>drum</title><g id="Layer_2" data-name="Layer 2"><g id="Layer_1-2" data-name="Layer 1"><path class="cls-1" d="M39.9,30.74,38.51,32l2.75,4.63a28.8,28.8,0,0,1-21.18,7.75l-.6-4.94-2.61-1Z"/><path class="cls-2" d="M37.34,33.56s-3.09,2.16-17.74,6.25l.76-.57,2.3-3.63Z"/><path class="cls-3" d="M39.63,3.91S42,30.07,38.54,32.7c-.34.25-.74.55-1.2.86-4.21,2.89-13.17,7.62-20.46,4.95,0,0-3.1-1.39-16.33-21.18C.55,17.33,26.89,3.62,39.63,3.91Z"/><path class="cls-1" d="M.55,17.33c1,3.08,13.11,2,23.67-1.44S40.64,7,39.63,3.91s-10-4-23.18.33C5.89,7.73-.46,14.26.55,17.33Z"/><path class="cls-4" d="M1.61,14.92c1,2.93,10.69,1.82,20.73-1.48s15.85-7,14.88-10c-.17-.54-.55-2.36-1.15-2.69C33.46-.71,27,1.2,18.85,3.89c-8.63,2.85-16.34,6.63-17.6,9.54C1.05,13.9,1.47,14.51,1.61,14.92Z"/><path class="cls-5" d="M1.17,13.58c1,2.93,10.69,1.82,20.73-1.48s15.85-7,14.88-10-8.33-2.88-18.37.42S.2,10.65,1.17,13.58Z"/><path class="cls-6" d="M38.19,1.5C42.63,7.52,30.94,12.42,27,14a70.31,70.31,0,0,1-11.72,3.36,46.47,46.47,0,0,1-8.78,1.11c-2.22,0-4.46-.4-5.74-2.39a9,9,0,0,1-.68-1.31c-.29-.69.74-1.23,1-.54,1,2.48,2.89,3.09,5.45,3.08a41.74,41.74,0,0,0,8.1-1,69.49,69.49,0,0,0,11.07-3,38.75,38.75,0,0,0,8.9-4.55c2-1.42,4.6-3.91,2.74-6.43-.44-.59.4-1.39.85-.79Z"/><path class="cls-6" d="M35.76,7a3,3,0,0,1,1.41,1.82c.13.35-.44.47-.56.12a2.5,2.5,0,0,0-1.16-1.45c-.33-.18,0-.67.31-.49Z"/><path class="cls-6" d="M36.63,6.32A3.1,3.1,0,0,1,38,8.14c.13.35-.44.47-.56.12a2.54,2.54,0,0,0-1.16-1.45c-.33-.18,0-.67.31-.49Z"/><path class="cls-6" d="M29.24,11.47c.24.67.6,1.29.84,2,.12.35-.45.47-.57.12-.24-.68-.6-1.3-.84-2-.12-.35.45-.47.57-.12Z"/><path class="cls-6" d="M28.51,12.08c.16.51.33,1,.5,1.52s-.45.48-.57.12-.33-1-.5-1.52c-.12-.35.45-.47.57-.12Z"/><path class="cls-6" d="M20.4,14.75a9.86,9.86,0,0,0,.5,2.08c.12.35-.45.47-.56.12a8.77,8.77,0,0,1-.5-2.08c0-.37.53-.49.56-.12Z"/><path class="cls-6" d="M19.17,15l.66,2c.12.36-.45.48-.56.13-.22-.68-.45-1.35-.67-2-.12-.35.45-.47.57-.12Z"/><path class="cls-6" d="M11,16.73a1.52,1.52,0,0,0,0,1.79c.18.32-.34.59-.52.27a2.09,2.09,0,0,1,.08-2.37c.21-.31.7,0,.49.31Z"/><path class="cls-6" d="M9.72,17a5.17,5.17,0,0,0,.33,1.5c.12.35-.45.47-.57.12A5.15,5.15,0,0,1,9.15,17c0-.37.57-.34.57,0Z"/><path class="cls-6" d="M3.61,16.8c-.6.35-1,.76-.75,1.48.11.35-.46.47-.57.12a1.76,1.76,0,0,1,1.06-2.11c.32-.19.59.32.26.51Z"/><path class="cls-6" d="M2.15,16.26c-.6.34-1,.76-.75,1.47.11.36-.46.48-.57.12a1.76,1.76,0,0,1,1.06-2.11c.32-.19.59.33.26.52Z"/><path class="cls-6" d="M40.58,29.59c-3.16,3.71-7.83,6-12.35,7.64a30.33,30.33,0,0,1-7,1.61,10.14,10.14,0,0,1-5.18-.51c-.67-.3-.33-1.41.35-1.1a9.58,9.58,0,0,0,4.84.46,30.47,30.47,0,0,0,6.41-1.49c4.44-1.49,9-3.85,12.1-7.46.48-.57,1.27.28.79.85Z"/><path class="cls-6" d="M37,31c.11.83.33,1.64.44,2.47,0,.37-.52.5-.57.12-.11-.83-.33-1.64-.44-2.47,0-.37.52-.49.57-.12Z"/><path class="cls-6" d="M36.13,31.84a10.12,10.12,0,0,1,.39,2.38c0,.37-.55.34-.58,0A9.38,9.38,0,0,0,35.56,32c-.11-.36.46-.48.57-.12Z"/><path class="cls-6" d="M30.67,34.57c.2.62.41,1.24.61,1.86.12.35-.45.47-.57.12-.2-.62-.4-1.24-.61-1.86-.11-.35.45-.47.57-.12Z"/><path class="cls-6" d="M31.63,34.07a10.41,10.41,0,0,0,.55,2.25c.12.35-.45.47-.57.12a10.27,10.27,0,0,1-.55-2.25c0-.37.53-.49.57-.12Z"/><path class="cls-6" d="M23.69,36.68a7,7,0,0,0,.81,2.46c.18.33-.34.59-.51.27a7.37,7.37,0,0,1-.86-2.61c-.05-.37.51-.49.56-.12Z"/><path class="cls-6" d="M22.68,37a10.14,10.14,0,0,0,.55,2.25c.12.36-.45.48-.56.12a9.63,9.63,0,0,1-.56-2.25c0-.36.54-.49.57-.12Z"/><path class="cls-6" d="M17.9,36.71a13.2,13.2,0,0,0,.61,2.42c.12.36-.45.48-.56.12a12.44,12.44,0,0,1-.61-2.42c-.05-.36.51-.49.56-.12Z"/><path class="cls-6" d="M16.9,36.79c.23.69.53,1.36.77,2.06.12.35-.45.47-.57.12-.23-.7-.53-1.37-.77-2.06-.12-.36.45-.47.57-.12Z"/><path class="cls-6" d="M37.35,7.86c.47,4.11,0,8.4-.21,12.5a106.05,106.05,0,0,1-1,11.55c-.07.37-.65.34-.58,0a103.34,103.34,0,0,0,1-11c.26-4.22.73-8.68.25-12.9,0-.37.52-.5.57-.13Z"/><path class="cls-6" d="M35.83,32c-1.07-3.28-2-6.6-3-9.89-.58-1.83-1.2-3.65-1.91-5.44a14.75,14.75,0,0,0-2-3.82c-.24-.29.19-.69.42-.4,2,2.47,2.89,6,3.85,9,1.13,3.47,2.06,7,3.19,10.47.12.35-.45.47-.56.12Z"/><path class="cls-6" d="M29.5,13.64c.35,7.09,1,14.15,1.64,21.21,0,.37-.54.5-.57.12-.61-7.11-1.29-14.22-1.65-21.36,0-.37.56-.34.58,0Z"/><path class="cls-6" d="M19.72,16.08c3.75,6.31,7.76,12.53,11.24,19,.18.33-.34.6-.52.27C27,28.87,23,22.66,19.2,16.35c-.19-.33.33-.59.52-.27Z"/><path class="cls-6" d="M19.93,16.71c.88,6.94,2.08,13.85,2.73,20.81,0,.37-.53.49-.57.12-.65-7-1.85-13.87-2.73-20.8,0-.37.52-.5.57-.13Z"/><path class="cls-6" d="M37.87,8.32c.74,3.35,1.11,6.81,1.54,10.21s.88,7.09,1.06,10.65c0,.37-.55.34-.57,0-.19-3.61-.65-7.22-1.1-10.8-.41-3.3-.78-6.66-1.5-9.91a.29.29,0,0,1,.57-.12Z"/><path class="cls-6" d="M22.83,38c-4-6.92-8.4-13.59-12.47-20.47-.19-.32.32-.59.51-.27,4.07,6.88,8.47,13.56,12.47,20.47.19.32-.32.59-.51.27Z"/><path class="cls-6" d="M10.63,17.65c2.24,6.79,4.8,13.47,7,20.26.12.36-.45.47-.56.12-2.24-6.79-4.8-13.47-7-20.26-.12-.35.45-.47.56-.12Z"/><path class="cls-6" d="M1.5,17.21c2.51,3.56,5,7.12,7.57,10.65S13.92,35,16.93,38c.26.26-.16.65-.43.39-3-3-5.38-6.71-7.86-10.13Q4.77,22.89,1,17.47c-.21-.3.3-.56.51-.26Z"/><path class="cls-6" d="M39.67,28.55a12.74,12.74,0,0,0,.75,1.92.29.29,0,0,1-.52.27,15.14,15.14,0,0,1-.8-2.06c-.12-.36.45-.48.57-.13Z"/><path class="cls-6" d="M37.82,8A55.67,55.67,0,0,1,40,18.54a42.12,42.12,0,0,1,.66,10c0,.37-.62.34-.58,0,.35-3.45-.23-6.87-.7-10.28A53.9,53.9,0,0,0,37.26,8.11c-.12-.35.44-.47.56-.12Z"/><path class="cls-6" d="M37.38,8.4a24.33,24.33,0,0,1-.51,5.31,56.26,56.26,0,0,0-.57,6.09c-.09,1.93.05,3.85,0,5.78a29.2,29.2,0,0,0,0,6.2.29.29,0,0,1-.57.12,24.6,24.6,0,0,1-.08-5.56c.12-2,0-4.09.06-6.13a52.77,52.77,0,0,1,.52-6.15,27.26,27.26,0,0,0,.57-5.69c0-.37.56-.34.58,0Z"/><path class="cls-6" d="M29.63,13.49a58.79,58.79,0,0,0,3.58,9.11c1.26,2.92,2,6,3.46,8.89a.29.29,0,0,1-.52.26c-1.42-2.84-2.21-6-3.45-8.88s-2.84-6-3.64-9.26c-.09-.36.48-.48.57-.12Z"/><path class="cls-6" d="M29.5,13.64C29.88,20.86,31.36,28,32,35.17c0,.36-.54.49-.57.12-.63-7.25-2.12-14.4-2.5-21.68,0-.37.56-.34.58,0Z"/><path class="cls-6" d="M20.52,15.38c3.77,6.39,7,13.15,10.44,19.7a.29.29,0,0,1-.52.27C27,28.8,23.77,22,20,15.65c-.19-.33.33-.59.52-.27Z"/><path class="cls-6" d="M19.93,16.71c.91,7.06,3.11,13.93,3.8,21,0,.37-.54.49-.57.12-.68-7.09-2.89-14-3.8-21-.05-.37.52-.5.57-.13Z"/><path class="cls-6" d="M22.83,38c-4.08-7-9.21-13.33-13.35-20.3-.2-.33.32-.59.51-.27,4.14,7,9.27,13.29,13.35,20.3.19.32-.32.59-.51.27Z"/><path class="cls-6" d="M9.9,17.89C12.16,24.7,15,31.31,17.24,38.12c.12.35-.45.47-.56.12C14.42,31.43,11.59,24.83,9.34,18c-.12-.35.45-.47.56-.12Z"/><path class="cls-6" d="M2.72,17.12c2.55,3.64,4.92,7.42,7.36,11.13q2,3.09,4.12,6.14A24.61,24.61,0,0,0,16.93,38c.26.26-.16.65-.43.39A23.28,23.28,0,0,1,13.94,35c-1.39-2-2.73-4-4.06-6-2.55-3.87-5-7.81-7.67-11.61-.22-.31.3-.57.51-.27Z"/><path class="cls-7" d="M38.73,36.87a1.31,1.31,0,0,0-1.06-1.52,1.33,1.33,0,0,0-1.59,1,1.13,1.13,0,0,0,.84,1.47A1.54,1.54,0,0,0,38.73,36.87Z"/><path class="cls-7" d="M34.66,39a1.31,1.31,0,0,0-1.06-1.52,1.34,1.34,0,0,0-1.59,1,1.12,1.12,0,0,0,.84,1.47A1.54,1.54,0,0,0,34.66,39Z"/><path class="cls-7" d="M29.66,41A1.35,1.35,0,0,0,27,40.46a1.12,1.12,0,0,0,.84,1.47A1.55,1.55,0,0,0,29.66,41Z"/><path class="cls-7" d="M24.6,42.07A1.35,1.35,0,0,0,22,41.54,1.1,1.1,0,0,0,22.78,43,1.56,1.56,0,0,0,24.6,42.07Z"/></g></g></svg>