<svg xmlns="http://www.w3.org/2000/svg" viewBox="0 0 258.03 118.77"><defs><style>.cls-1{isolation:isolate;}.cls-2,.cls-3{fill:#414042;}.cls-3{stroke:#000;stroke-linecap:round;stroke-linejoin:round;stroke-width:0;}.cls-4,.cls-5,.cls-6,.cls-7,.cls-8{fill:#e77874;}.cls-5,.cls-6,.cls-7,.cls-8{mix-blend-mode:multiply;}.cls-6{opacity:0.35;}.cls-7{opacity:0.5;}.cls-8{opacity:0.2;}.cls-9{fill:#ea8b88;}.cls-10{fill:#1d1d1b;}</style></defs><title>lady-ann-2</title><g class="cls-1"><g id="Layer_2" data-name="Layer 2"><g id="Layer_1-2" data-name="Layer 1"><path class="cls-2" d="M182.29,55.87l.21-.06-.07-.1Z"/><path class="cls-2" d="M195.94,56.06c.15-.27.28-.51.39-.73h0a3.74,3.74,0,0,1,1.32-.25,8.65,8.65,0,0,0,1.51-.08,1.88,1.88,0,0,1,.58,0,1.24,1.24,0,0,1,.4.09.91.91,0,0,0,.63.08H201l.42.07a.58.58,0,0,1,.21.07l.28.06c1.31,0,1.51-.62,1.51-1v-.1h1.13l-1.29-.75a.85.85,0,0,0-.59-.36l-.06,0a2.15,2.15,0,0,0-1.11-.35,4.1,4.1,0,0,1-.82-.11l-.22,0h-.82a4.38,4.38,0,0,1-.62-.05h-.7l-.44,0,.37-.76,0-.09a5.82,5.82,0,0,1,.33-.91,8,8,0,0,1,.52-1l.14-.33c.11-.22.22-.49.33-.78s.2-.57.26-.77a1.23,1.23,0,0,1,.17-.32,3.09,3.09,0,0,0,.32-.51l.45-.9.42-1.19a3.61,3.61,0,0,0,.38-1,1.22,1.22,0,0,0,0-.19l.12-.22h0l.36-.76.58-1.48a12.74,12.74,0,0,0,.44-1.63c.1-.52.19-1,.26-1.53,0-.24.08-.49.13-.75a2.4,2.4,0,0,0,0-1V36.1a2.38,2.38,0,0,0-.08-.61l-.07-.22v-.13l-.27-.43.3-.32h-.52l-.06-.08a1.49,1.49,0,0,0-.56-.36,1.59,1.59,0,0,0-.45-.08h-.31l-.55.07a1.41,1.41,0,0,0-.8.35l-.29.08-1.47.85-.72.55-.23.2a2,2,0,0,0-.7.48,2.79,2.79,0,0,0-.37.44l-.53.37-.58.62-.55.44L194,39a5.29,5.29,0,0,1-.58.58L191.74,41l-.06.07a3.56,3.56,0,0,1-.87.86l-.39.4-.06.08a2.7,2.7,0,0,1-.29.4,2.27,2.27,0,0,1-.4.33l-.18.18a8.54,8.54,0,0,1-.59.79l-.65.75-.58.52L185,48.54l-.33.31a1.43,1.43,0,0,0-.38.46l-2,2.43h0l-.06-.07-.1.14h0l-.06.09-.16.21a9.61,9.61,0,0,1-.78.91h0l-.09.06,0,.12-.41.36.08.07-.43.52c-.28.35-.52.67-.73,1l-.4.47c-.2.21-.39.43-.53.6a3.75,3.75,0,0,0-.44.53l-.22.31-2.29.76-2.48.78-2.56.77c-.82.25-1.69.53-2.55.83l-.6.16-.22.07-3.05.89-2.76.46-.14,0c-.18.1-.36.18-.55.27a21.58,21.58,0,0,1-3.41,1.33h0l-.53.16-1.37.39,1.56.4a9.84,9.84,0,0,0,1.26.24l1.49.13h.57a3.7,3.7,0,0,0,.62,0,.91.91,0,0,0,.27-.06l1.68-.16,1.1-.23c.43-.09.85-.19,1.25-.3l1.94-.5a.76.76,0,0,0,.32-.11l.07,0h.09a2.52,2.52,0,0,0,.72-.14l.1-.06a.69.69,0,0,1,.18-.06,3.45,3.45,0,0,0,.51-.16l.88-.22,4.29-1.49L172.56,63a3,3,0,0,1-.43.56L170.74,65l-.25.39c-.2.16-.38.34-.56.51l-.49.5a4.38,4.38,0,0,0-.54.51,5.32,5.32,0,0,0-.36.47,6.61,6.61,0,0,0-.6.49c-.2.18-.39.36-.59.56l-.59.67a.78.78,0,0,1-.26.25l-.12.11c-.18.24-.29.29-.32.3l-1.12,1s0,0-.15.1l-.49.5-2.76,2.24-1.11.61-.31.13a.32.32,0,0,1-.14,0,1.31,1.31,0,0,0-.61.15,1.78,1.78,0,0,1-.56.11h-.36l-.21,0-.67-.34v-.05a.6.6,0,0,0-.06-.28.79.79,0,0,0-.05-.25l-.05-.3-.1-.1c-.11-.28-.42-.42-1-.42l-.23.06L156,73a1.59,1.59,0,0,0-.47.72,1.28,1.28,0,0,0-.07.41l-.06.87h-.18l.2.39h-.07l.11.09.22.42a1.51,1.51,0,0,0,.49.58l.56.43-.32.08h.42l.07,0a3,3,0,0,0,1.56.4,5.23,5.23,0,0,0,1.06-.09c.27-.06.51-.13.74-.2l1.82-.61v.14l.2-.2,1.66-.55h-1.12l.32-.33.25-.17a2.62,2.62,0,0,0,.53-.4l1.81-1.51.21-.24.62-.48.46-.46.72-.56L169.5,70l1.31-1.26L174,65.39l.52-.47,1.23-1.44a4,4,0,0,0,.79-.8c.18-.24.38-.49.65-.81a4.8,4.8,0,0,1,.51-.59c.21-.22.44-.46.68-.74l.88-.93c.39-.14.77-.27,1.14-.37s.93-.28,1.45-.45l.33-.11.09,0a3.3,3.3,0,0,0,.69-.19,5.74,5.74,0,0,1,.68-.21l.46-.1.06-.06h0l0,0,.24-.07.28-.09.13,0,.16-.06c.21-.06.42-.1.63-.15l.53-.1v0l.18,0,0,0,1.45-.47.76-.16c.15,0,.22-.06.21-.07a.74.74,0,0,0,.34-.06l4-.75-1.86,3.47a4,4,0,0,1-.21.47c-.09.19-.18.38-.25.57l-.07.19-.38.59q-.21.42-.45,1c-.16.37-.32.76-.43,1.08l-.44.88q-.24.48-.45,1l-.31.71,0-.56-.93,2.31a2.47,2.47,0,0,1-.17.42l0,0-.06.13-.32.88c-.06.17-.11.34-.17.51s-.2.55-.29.79a6.86,6.86,0,0,1-.29.66h0c-.1.21-.21.41-.32.6l-.17.65a1.14,1.14,0,0,0-.06.25.66.66,0,0,0-.12.33.82.82,0,0,0-.11.39v.6a1.59,1.59,0,0,0,.18.87l.49.66h.32a1.44,1.44,0,0,0,.84-.16.77.77,0,0,0,.33-.49,2.87,2.87,0,0,0,.18-.47,1,1,0,0,1,.13-.29l.29-.54c.08-.19.13-.36.18-.5a.53.53,0,0,1,.1-.21l.06-.09v-.13a1.12,1.12,0,0,0,.1-.27l1.42-3.3.77-2,.41-.93,0-.14h0a1.19,1.19,0,0,0,.1-.28,1.35,1.35,0,0,0,.2-.35l.08-.29.79-1.55.13-.37,1.09-2,.77-1.6.5-1c.18-.39.38-.8.58-1.21ZM167.3,63l-.15-.23ZM156.79,74.18h0Zm27.57-18.86-.13,0a6.9,6.9,0,0,1-.83.23,1.65,1.65,0,0,1-.32,0l-.09,0-.11,0-.21,0v0l-.15,0h0l.32-.48a2.31,2.31,0,0,1,.2-.24l0,0,.2-.21h0l.1-.16s.07-.08.1-.13a3.37,3.37,0,0,1,.19-.32l.13-.17.23-.31v0l.48-.51c.26-.28.52-.55.79-.82l.2-.16v-.12l0-.07,0,0a3.9,3.9,0,0,1,.43-.54c.18-.2.36-.38.53-.55s.29-.31.54-.6a3.65,3.65,0,0,0,.31-.38l.92-1.16,2.92-3.18,2.38-2.49a6.56,6.56,0,0,0,.88-.8c.25-.26.5-.51.77-.74l1.49-1.39.83-.58a4.19,4.19,0,0,0,.73-.66,4.29,4.29,0,0,1,.48-.32l.28-.25.66-.45.8-.5a1.6,1.6,0,0,0,.4-.19l.07-.05-.14,1.14a1.74,1.74,0,0,0-.17.53c0,.18-.05.32-.06.44l-.57,1.77-.41.93,0,.08a.59.59,0,0,0-.16.33c-.07.22-.15.45-.24.68s-.17.43-.23.62a1.29,1.29,0,0,0-.19.37l-.08.06-.06.15c-.28.66-.54,1.28-.78,1.87s-.51,1.14-.83,1.75c-.17.42-.36.84-.55,1.24s-.41.91-.57,1.32l-.56,1.17-.2.37-.13.2a3,3,0,0,0-.26.48l-.09.22-1.19.32-2.19.32a10.29,10.29,0,0,1-1.5.32,14.27,14.27,0,0,0-1.54.32l-.7.24-1.5.31a8.41,8.41,0,0,0-.92.24L185,55l-.06.11-.27.08h0l-.07,0Zm-2.07.55.14-.16.07.1Zm19.18-19.36Z"/><path class="cls-3" d="M148.79,74.19h0"/><line class="cls-3" x1="159.15" y1="62.73" x2="159.3" y2="62.96"/><line class="cls-3" x1="201.47" y1="36.51" x2="201.47" y2="36.51"/><path class="cls-2" d="M231.9,61.35a1,1,0,0,0-.92-.18c-.2.07-.49.24-1.11,1A14.74,14.74,0,0,1,227,65a11.53,11.53,0,0,1-4.33,2.16l0-.49a10.66,10.66,0,0,1,.54-3l.05-.17-.11-.19c0-.07.09-.21.2-.43l.06-.12V62.7c-.22-2.34-1.56-2.83-2.66-2.83h-.6l-.18,0a3.17,3.17,0,0,0-1,.63A5.65,5.65,0,0,0,217,61.78a2.26,2.26,0,0,0,0-.37l0-.15c0-.4-.26-1.09-1.44-1.18h0a1.46,1.46,0,0,0-.94.46l-.09.07,0,.12c-.13.39-.27.78-.42,1.16l-.26.32A14.46,14.46,0,0,1,210.88,65a11.53,11.53,0,0,1-4.33,2.16l0-.5a10.73,10.73,0,0,1,.54-3l0-.17-.11-.19c0-.07.09-.21.2-.43l.06-.12V62.7c-.22-2.34-1.56-2.83-2.66-2.83H204l-.18,0a3.17,3.17,0,0,0-1,.63,5.75,5.75,0,0,0-1.89,1.24,2.29,2.29,0,0,0,0-.37l0-.15c0-.4-.25-1.09-1.44-1.18h0a1.46,1.46,0,0,0-.94.46l-.09.08,0,.11a25.45,25.45,0,0,1-1.91,4.37,18.39,18.39,0,0,0-1.47,5v.12c.07.68.63,1.13,1.66,1.34l.1,0,.1,0a1,1,0,0,0,.56-.3,8.58,8.58,0,0,0,1.33-2.08l0-.12a4,4,0,0,1,.37-1.17l.11,0,.1-.16a9.25,9.25,0,0,1,1.31-1.89l.14,0,.08-.11a7.89,7.89,0,0,1,.56-.77l.16-.13a28.93,28.93,0,0,1,2.88-2.46l0,.37c-.85,3.16-.93,3.93-.9,4.26a2.12,2.12,0,0,0,.14.6c.17,1.33,1.28,2.1,3.28,2.3h.13a6.19,6.19,0,0,0,2-.66,18.07,18.07,0,0,0,2.54-1.69,13.19,13.19,0,0,0-.58,2.63v.12c.07.68.63,1.13,1.66,1.34l.1,0,.1,0a1,1,0,0,0,.56-.3,8.58,8.58,0,0,0,1.33-2.08l0-.12a4,4,0,0,1,.37-1.17l.11,0,.1-.16a9.25,9.25,0,0,1,1.31-1.89l.14,0,.08-.11a7.89,7.89,0,0,1,.56-.77l.16-.13a30.32,30.32,0,0,1,2.88-2.46l0,.37c-.85,3.16-.93,3.93-.9,4.26a2.62,2.62,0,0,0,.13.6c.18,1.33,1.29,2.1,3.29,2.3h.13a6.19,6.19,0,0,0,2-.66,18.17,18.17,0,0,0,3.52-2.52,19.4,19.4,0,0,0,3-3.69C231.92,62.59,232.41,61.78,231.9,61.35Z"/><path class="cls-2" d="M86.55,40a6.09,6.09,0,0,1,3.62,2.3,6.24,6.24,0,0,1,.76,2.32c-.46,1.63-1.94,3.26-4.45,4.91a28.12,28.12,0,0,1-8.76,3.54,8.3,8.3,0,0,0-2.64.6,6.44,6.44,0,0,1-.91-.11l-3.51.49a.9.9,0,0,0-.42-.14H70c-.32,0-1.14,1.2-2.43,3.62-.42.27-1,1.33-1.78,3.16q-.37,0-.9,1.77a27.62,27.62,0,0,0-2.09,4.24,24.39,24.39,0,0,0-2.4,4.66c-.27.07-.63.73-1.07,2a13.1,13.1,0,0,0-2.26,3.86,2.74,2.74,0,0,0-.53.55h-.2q7.95,1.26,12.55,2.09l.49-.11,1.25.25.8-.14a14.66,14.66,0,0,1,2.64.24,41.4,41.4,0,0,0,8.59-1,.74.74,0,0,0,.41.18H83a1.52,1.52,0,0,1,1.18-.77h.45c0,.35,0,.52-.11.52h-.1c0-.34.37-.52,1.11-.52h.8a5.48,5.48,0,0,1-2.64,1.91,19.13,19.13,0,0,1-4.31,1.4h-.66v.24a1.59,1.59,0,0,1-.8-.14,18.51,18.51,0,0,0-3.72.63c-.72-.07-1.3-.11-1.74-.11h-.14a4.53,4.53,0,0,0-.94.11,23.33,23.33,0,0,1-4-.49l-.45.14-3.13-.56v.11l-5.46-1-2.74-.48-.28.13a1.16,1.16,0,0,0-.49-.13h-.1c-.1,0-.43.53-1,1.6a3.66,3.66,0,0,0-1,1.39q-.21.06-4.17,4.31a29.55,29.55,0,0,1-4.11,2.68c0,.37-.77.89-2.26,1.56-3.45,1.92-6.15,2.89-8.1,2.89,0,0-1,.2-2.88.48a3,3,0,0,0-1.29-.24H29.8c.14,0,.21.09.21.28l-.66-.28h-.27q-3.69,0-7.79-3.58a13.86,13.86,0,0,1-2.19-4l.14-.94V85.24c.48-1.18.72-1.65.72-1.42h-.31c.65-1.62,1.24-2.44,1.78-2.44,0-.55.78-1.2,2.36-1.94q0-1.18,6.33-2.75a47.89,47.89,0,0,1,8-1l.59.1.73-.1c.93.07,1.75.1,2.47.1h.38l1,.07-.14.07q6.67.87,10.6,1.56,3.27-4,3.27-5a9.08,9.08,0,0,0,1.39-3q.76-1.14,4.07-8.41a26,26,0,0,0,2.85-5.32c1-.86,1.43-1.49,1.43-1.88v-.14a22.13,22.13,0,0,1-6.3-2.57q-7.4-5-7.4-8.07l1.18-.31c.3,0,1.22.89,2.75,2.67q6.12,5.19,10.18,5.71l1.22.24c3.43-4.26,6.52-7.12,9.25-8.55a15.67,15.67,0,0,1,5.08-2.16l.52.07c.07-.21.44-.39,1.11-.56l.52.11A4.46,4.46,0,0,0,86.55,40ZM21.77,85.63q0,4.73,5.53,6.6l2.82.59a1.1,1.1,0,0,1,.55-.1,1.77,1.77,0,0,1,.39.07s1.56-.31,4.69-.87a10,10,0,0,1,2.16-.77,38.43,38.43,0,0,0,6.74-3.89,59,59,0,0,0,6.09-5.49h.62V82H51v.21c0,.07-.12.1-.35.1v-.59a10,10,0,0,0,1.6-2v.14c-2.44-.39-4.82-.68-7.17-.87,0,0,.09-.07.25-.07A1,1,0,0,0,45,79a27.52,27.52,0,0,1-4.32-.59c-.07,0-.1.17-.1.42a6.32,6.32,0,0,0-1.22-.42q-14.59,0-17.18,6.19Zm49.69-34s0-.07-.14-.07l3.31-.38a1,1,0,0,0,.52.14c3.91-.88,6.45-1.7,7.61-2.44Q87.91,46.3,87.91,45c.14,0,.3-.16.49-.48V43.34c-.14-.32-1-.68-2.54-1.07h-.28Q79,43.69,75.43,47.59C72.78,50,71.46,51.32,71.46,51.62ZM86.55,77.94c.37,0,.56.3.56.77a3.33,3.33,0,0,1-2,.52C85.47,78.37,86,77.94,86.55,77.94Z"/><path class="cls-2" d="M94.62,58.75a5.07,5.07,0,0,1,3.2,1.67c1.2,0,1.81.41,1.81,1.25a.12.12,0,0,1,.14.14,12.9,12.9,0,0,0-2,6v.42c.18.83.41,1.25.69,1.25h.84c1.3,0,3.47-1.76,6.53-5.29,0-.25.65-.81,2-1.67A2.57,2.57,0,0,1,108.94,61h.14a1.67,1.67,0,0,0,.28.84,15.25,15.25,0,0,1-2.47,4.52q-4.62,6-7.82,6c-1.93,0-3.36-1.12-4.31-3.34v-.28h-.42q-5.07,4.32-7.93,4.31H86q-2.72,0-3.48-2.92v-.28q0-3.78,5.7-7.92l3.9-2.51C92.12,59.12,93,58.89,94.62,58.75Zm-9,10.71v1c0,.19.11.28.28.28h.27c1.7,0,4-1.35,6.82-4Q95.59,64,95.59,62.5v-.14c0-1.11-.41-1.67-1.25-1.67Q91,61.82,87.11,66A8.3,8.3,0,0,0,85.58,69.46Z"/><path class="cls-2" d="M126.47,46c1.58.44,2.36,1.08,2.36,1.91,0,1.21-.78,2.9-2.36,5.08l.17.31a29,29,0,0,1-5.87,9.5c-1.7,1.87-2.54,3.09-2.54,3.65v.45c0,1.81.64,2.71,1.91,2.71q4.06.18,10.22-5c2.28-2.48,3.58-3.72,3.93-3.72a7.56,7.56,0,0,1-1.7,4,41.56,41.56,0,0,1-4.83,4.2c-2.93,2.11-5.3,3.17-7.13,3.17q-3.27,0-5.39-3.34a17.57,17.57,0,0,1-6.33,3.34H107c-2.2-.6-3.31-1.72-3.31-3.34a1.19,1.19,0,0,1-.17-.63q.8-3.51,6-7.44a9.54,9.54,0,0,1,4.9-1.74,7.43,7.43,0,0,0,1.91.49h.31a18.59,18.59,0,0,1,3-6.64,12.63,12.63,0,0,1,2.72-4C124.11,47,125.47,46,126.47,46ZM106.68,68.14v1.07q0,.53,1.74.66c1.37-.2,3.21-1.32,5.53-3.33a5.42,5.42,0,0,0,1.29-1.92,3.94,3.94,0,0,1-.8-2.5v-.66a1.38,1.38,0,0,1-.49-.14q-2.88,0-6.78,5.39A4.48,4.48,0,0,0,106.68,68.14Zm13.15-8.87H120q.59-.14,3.2-4.14l2.36-4.73v-.62q-2.11.48-5.7,9Z"/><path class="cls-2" d="M141.66,59.23h.28a2.21,2.21,0,0,1,1.39,1.53,34,34,0,0,0-1.21,9.36.12.12,0,0,0,.14.14l-.14.76c0,.54,0,1.56.14,3.06a2.45,2.45,0,0,0-.32.91,1.1,1.1,0,0,0,.18.62,53.8,53.8,0,0,1-.63,6.75l.94.14a5,5,0,0,0,1.36-.63h.45a.15.15,0,0,1,.17.17,12,12,0,0,1,2.61-.76l.45.31h.14c0-.44,1.79-.85,5.35-1.25a1.61,1.61,0,0,1,1.22-.59h.18q0,.45.27.45l.63-.62,1.08.17h.31a2.68,2.68,0,0,1,1.53-.77.13.13,0,0,1,.14.14l1.84-.14h1.36l1.84-.62a5.29,5.29,0,0,1,.63.17,31.72,31.72,0,0,0,4.41-.94,1.88,1.88,0,0,0,.94.32,1,1,0,0,1,1-.63h.76l.63.49h.14c0-.33.82-.64,2.46-.94h.32l.59.45c.16-.39.31-.59.45-.59h.49c2.43,0,3.65-.15,3.65-.45l.76.14h.63a9.84,9.84,0,0,1,1.22-.32h1.21c.12,0,.18,0,.18-.14l.28.14h4.58c.82,0,1.89.06,3.24.18.51-.12.76-.22.76-.32a3.63,3.63,0,0,0,1.36.46,1.88,1.88,0,0,1,.94-.32h.45l1.08.18c0-.21.11-.32.28-.32s.17,0,.17.14l1.08-.14h.45a17.1,17.1,0,0,0,1.84.46c.14-.42.29-.63.46-.63H201c.21,0,.32.16.32.49h.45l.63-.63h.76a17.35,17.35,0,0,1,2.43.31l.14-.31.77.14a2.55,2.55,0,0,0,1.08-.28.4.4,0,0,1,.45.45h.17l.45-.31h.77v.14l-.14.31h1.22c0-.6.19-.9.59-.9l.31.14h.31l1.85-.14.31.59a9.82,9.82,0,0,1,3.34-.76,2.53,2.53,0,0,0,1.25.48c0-.21.12-.31.28-.31h.17l.45.31h.46l.62-.48,1.84.31a5.31,5.31,0,0,1,1.36-.31l.31.17.32-.17,3.2.31a2.33,2.33,0,0,0,1.21-.45h1.08a8.83,8.83,0,0,0,1.22.31h2l.76.59h.18c0-.51.15-.76.45-.76a4.93,4.93,0,0,1,2.61.76h.14a4.18,4.18,0,0,0,1.7-.28l.91.14.62-.31.28.17A7.52,7.52,0,0,1,242,75.3h.14a.15.15,0,0,1,.17.17l.77-.31a1.2,1.2,0,0,0,.59.14h.17a.12.12,0,0,0,.14-.14,1.71,1.71,0,0,0,.91.31h.76v.28h.49a1,1,0,0,1,.59.17,1.18,1.18,0,0,1,.62-.17h.32c.14,0,.29.16.45.49a1.42,1.42,0,0,1-.63.14v.31c.3,0,.46.1.46.31v.14a6.71,6.71,0,0,1-1.36-.45,6.41,6.41,0,0,1-.63.14,1.41,1.41,0,0,1-.45-.14q-2,.14-2,.45l-.77-.14h-.17a.13.13,0,0,0-.14.14,6.89,6.89,0,0,0-1.39-.31,12.43,12.43,0,0,0-3.34.62h-8a.13.13,0,0,0-.14.14l-.31-.14h-5.67a8.57,8.57,0,0,0-1.36.14,1.38,1.38,0,0,0-.62-.14,4.8,4.8,0,0,0-1.53.32l-.91-.18H219a1.27,1.27,0,0,0-.76.18l-.91-.18h-.45c-1,0-1.53.13-1.53.32l-.31-.14h-.46a1.51,1.51,0,0,0-.76.14l-.94-.14h-1.08a16.1,16.1,0,0,0-2.12.28c-1,0-4.14,0-9.49.17-.09,0-.5-.06-1.22-.17l-.62.31c0-.14-.15-.29-.46-.45h-.13l-.94.45a2.43,2.43,0,0,0-1.22-.31,2.55,2.55,0,0,1-1.22.48,10,10,0,0,1-2.43-.48,2,2,0,0,1-1.08.62l-1.53-.14c-1,.16-2.36.32-4,.45a1.18,1.18,0,0,0-.49-.17l-6.12.63-.28-.14c-1.34.07-2,.16-2,.28l-.28-.14h-.18c-.25,0-1.57.25-4,.76l-.31-.14h-.14l-4,.77-.28-.18q-12.56,1.71-18.05,3.06h-1.7a31.32,31.32,0,0,1-5.49,1.53,1.83,1.83,0,0,0-1.53,2c-.24,0-.55.91-.94,2.74-2,5.75-3.87,9.53-5.64,11.34a23.4,23.4,0,0,1-11.33,9.32,16.94,16.94,0,0,1-5.49,1.07h-1.08c-3.18-.41-5.47-1.13-6.89-2.15q-4.27-2.34-4.27-6.4,0-2.82,3.37-5.67a27.44,27.44,0,0,1,6.4-4.73,18.41,18.41,0,0,0,3.06-1.7q11.43-5,13-5a23.12,23.12,0,0,1,6.43-2.16c1.12-.11,1.67-.57,1.67-1.35v-.77l-.14-.9c0-.14.26-.4.77-.77l-.14-.76a1.38,1.38,0,0,0,.14-.49l-.14-.28.14-.76-.14-.63a1.41,1.41,0,0,0,.14-.45,5.33,5.33,0,0,1-.14-1.08h.14l-.14-.31v-.45l.28-.46-.14-.62.62-1.53-.76-.91V69.81l.28-1.08a6.26,6.26,0,0,1-.28-1.22h-.17q-3.69,5-4.42,5c-.9,1.53-2,2.3-3.23,2.3a2.68,2.68,0,0,1-2.89-2.61c.09-.3.2-.45.31-.45s-.05-.14-.17-.14l.17-1.08v-.94c.33,0,.84-1.22,1.53-3.65q2-5.36,3-5.36h.17c.6,0,.91.41.91,1.22Q131.26,69,131.27,71v.31l.14.77c1.13-.32,2.6-1.5,4.41-3.51q3.24-4.11,3.24-4.59a12.5,12.5,0,0,0,1.67-4.28A1.66,1.66,0,0,0,141.66,59.23ZM108,103.74v.63q1.48,5,8.55,5.67c1.65-.26,2.47-.47,2.47-.63l.76.14h.46l3.19-1.67.32.14h.45c0-.63.61-1,1.84-1.22a6.67,6.67,0,0,1,2.92-2.75c0-.69.77-1.46,2.3-2.29a1.78,1.78,0,0,0,.9-1.67c.23,0,.69-.66,1.36-2,.41-.72.88-1.08,1.39-1.08v-.45a1.31,1.31,0,0,1-.31-.49c.37-1.11.62-1.67.76-1.67.35,0,.56-.46.63-1.39a.12.12,0,0,0,.14-.14v-.76q.93,0,.93-1.53c.14,0,.29-.3.46-.91a.27.27,0,0,0,.31-.31,1.05,1.05,0,0,1-.17-.45.28.28,0,0,0,.31-.31,1.16,1.16,0,0,0-.14-.46c0-.71.25-1.07.76-1.07v-.46a.28.28,0,0,0-.31-.31h-.17a114,114,0,0,0-18.19,6.57Q108,99.22,108,103.74Zm47.25-23.68v.28a1.24,1.24,0,0,1,.63.17l.13-.31-.31-.14Zm55.36-4v.18h.31c.14,0,.29-.16.45-.49h-.45C210.72,75.8,210.62,75.9,210.62,76.06ZM238.92,75h.45v.17h-.45Zm10.26.93a6.83,6.83,0,0,0,2.29.6V77l-1.08-.17h-.31l-.76.17c-.21-.25-.32-.41-.32-.48v-.28Z"/><path class="cls-4" d="M52.73,36.94s6.31-.87,7.27-1a72.53,72.53,0,0,1,7.53-.77c1.47,0,4.36-.67,5.22-.14a2.39,2.39,0,0,1,1.15,2c.13.83-.63,5.07-.57,5.86a3.63,3.63,0,0,1-.86,2.63c-.61.49-5.25.72-6.86.38l-9-1.86c-1-.21-3.29-.93-3.29-.93s3.13,3.83,3.94,5,3.17,4.82,3.41,5.29a10.07,10.07,0,0,1,.51,1.27,37.12,37.12,0,0,0-1,3.65c-.22,1.25-1.46,3.28-1.7,4.21a22.08,22.08,0,0,1-1.71,3.34l-2.57-6.69c-.37-1-3.09-8.63-3.48-9.4s-2-5.42-2-5.42l-.85-2.65A14.42,14.42,0,0,0,46,40.74a11.37,11.37,0,0,1-2.1-1.44,11.74,11.74,0,0,0-3.64-.61,33,33,0,0,1-5.24-.22c-.52-.07-6.15,0-6.67-.12s-6.24,0-6.24,0l-7,.06a20.12,20.12,0,0,0,2.12-1.76c.51-.57,2.17-2.77,2.78-3.52s3.76-3.81,3.76-3.81,3.61.27,5.09.61,3,.67,4,1,2.71.69,2.71.69a60.15,60.15,0,0,1-5.65-6.81c-1.63-2.59-2.68-4.68-2.14-5.71s3.86-2.79,4.89-3.29A15.13,15.13,0,0,1,37,14.7a2.49,2.49,0,0,1,2,.9c.47.69,2.21,5.6,2.67,6s1.65,3.49,2,3.92,1.43,2.79,1.72,3.37a31.74,31.74,0,0,1,1.31,3.52,5.17,5.17,0,0,0,.4,1,5.22,5.22,0,0,1,1.92.93,13.09,13.09,0,0,0,2.2,1.66,4.12,4.12,0,0,1,1.37.27A.45.45,0,0,1,52.73,36.94Z"/><path class="cls-5" d="M37.46,17.38c2.36,4.4,5.16,7.48,8.19,12.23-.12-.3-.22-.55-.29-.68-.29-.58-1.42-2.95-1.72-3.37s-1.5-3.48-2-3.92-2.2-5.35-2.67-6a2.1,2.1,0,0,0-1.36-.82A2.56,2.56,0,0,0,37.46,17.38Z"/><path class="cls-6" d="M35.21,31.18l.36.38s-1.69-.39-2.71-.69c-.65-.19-1.49-.39-2.39-.61,3,2.2,6.91,4.56,7.51,8.45a14.2,14.2,0,0,0,2.32,0,11.77,11.77,0,0,1,3.62.6c-.21-.57.09-.95-.3-1.43A36.58,36.58,0,0,0,35.21,31.18Z"/><path class="cls-6" d="M48.6,44.27s.21.61.51,1.42c2.39-.9,4.52-.14,6.65.43-.95-1.2-2-2.51-2.36-2.93a18.42,18.42,0,0,0-5.64-1.55Z"/><path class="cls-5" d="M72.9,35.1l-.15-.1c-.86-.53-3.75.18-5.22.14a72.53,72.53,0,0,0-7.53.77c-.88.15-6.3.9-7.15,1l0,.06c2.62-.48,6.52-.14,10.25-.13C68.34,36.88,73.2,36.56,72.9,35.1Z"/><path class="cls-7" d="M54.78,36.75c-.2-.2-1,0-1.26.14.22.38,0,.64.32.89s1.09.23,1.52.55c-.29.26-1.07.06-1.48.25s-.93.37-.79.73.59.41.79.47c.54.18,1.07.33,1.62.5.82.27,1.66.4,2.48.66a12.15,12.15,0,0,0,1.2.42c.34.07.69,0,1,.17a2.89,2.89,0,0,1-1.34,0c-.8-.14-1.61-.22-2.39-.41a19.8,19.8,0,0,0-2.78-.69,4,4,0,0,0-1,0,4.48,4.48,0,0,0-.68.09.8.8,0,0,0,0,1.16.48.48,0,0,0,.05.38c-.42-.07-.61-.24-1-.09s-.11.31-.58.2c-.28-.06-.51-.24-.78-.3s-.47,0-.67-.07c.32-.51,1.17-.85,1.63-1.27A10.41,10.41,0,0,0,52,39a8.28,8.28,0,0,0,1-1.23,2.41,2.41,0,0,1,.79-1"/><path class="cls-7" d="M47.13,33.59c-.12-.06-.24-.22-.33-.26s-.24,0-.34,0a1,1,0,0,1-.58-.45,4.7,4.7,0,0,0-1.05-1.2c-.18.56.43,1.13.24,1.6-.08.19-.43.37-.6.48s-.07.19-.23.23a2.11,2.11,0,0,1-.61-.32c-.36-.27-.51-.69-.81-1s-.87-.92-1.25-1.41c-.51-.65-.93-1.37-1.39-2-.68-1-1.12-2.06-1.83-3-.2.41.14.88.28,1.27a9.77,9.77,0,0,0,.65,1.81c.27.43.72.76.95,1.22s.31.84.46,1.24A5.8,5.8,0,0,0,42,33.85c.31.32,1,1.12,1,1.56a7.26,7.26,0,0,0-1.19-.49c-.36.4.74.59.36.88-.21.17-.83-.44-1.1-.39a12,12,0,0,0,1.54,1.31,6.52,6.52,0,0,1,.63.78c.66.78.6-.72.76-1.17A3.52,3.52,0,0,1,45,34.64,3.08,3.08,0,0,1,47.13,33.59Z"/><path class="cls-8" d="M37.75,17.78a2.51,2.51,0,0,1,0-2.87c-1.22-.82-4.76.56-6,1.17-.93.48-1.53,1.18-2.43,1.68a3,3,0,0,0-1.85,2.37,5.23,5.23,0,0,0,1.39,3.17c.29-.37.06-.66.21-1s.47-.49.72-.71c.84-.76,1.41-.56,2.5-.91.56-.18.73-.53,1.27-.86s1.29-.42,1.83-.74a4.62,4.62,0,0,1,1.17-.62C37.09,18.3,37.43,18.28,37.75,17.78Z"/><path class="cls-8" d="M69,36.45a14.09,14.09,0,0,0,3.44-.6c.78-.29.85-.52,1.26.44A3.88,3.88,0,0,1,73.92,38c0,1.56-.5,3.13-.61,4.68a5.65,5.65,0,0,1-.3,1.93c-.34,1-.47.93-1.52,1.11a9.19,9.19,0,0,1-4.42.08c.6-.55,1.6-.3,1.72-1.45,0-.32-.26-.75-.26-1.1A2.85,2.85,0,0,1,68.92,42a6.49,6.49,0,0,0,.48-2.3A19.22,19.22,0,0,1,69,36.45Z"/><path class="cls-8" d="M45.25,34.64c1.25-2.63,4.53.52,5.89,1.23,1.07.56,2.22.77,1.54,2.22-1.06,2.25-1.2-.12-2.31-.77a8.23,8.23,0,0,1-1.55-.81,9.25,9.25,0,0,0-1.11-.8A20.68,20.68,0,0,1,45.25,34.64Z"/><path class="cls-8" d="M43.91,36.5a3.83,3.83,0,0,0,0,2.2c.27.87,1,1,1.78,1.43,1.5.81,3,2.18,4.32.61-.46-.31-.57.13-1,.08a3.26,3.26,0,0,1-.9-.43c.26-.35.3-1.12-.13-1.32s-.81.58-1.12,1c-1-.72.36-2.35-.72-3a3.28,3.28,0,0,0-.92,1.46C44.26,38.7,44.59,36.86,43.91,36.5Z"/><path class="cls-9" d="M44.62,35.33c.71-1,1.12.43,1.59.65.1,0,.49-.19.67-.14s.31.22.47.28c.34.13.81.36,1.18.51a7.15,7.15,0,0,1,1.75,1.31,7.11,7.11,0,0,1,.77.67c.24.31,0,.63.43.9-.7,1.73-2.73-.84-3.34-1.35A15.28,15.28,0,0,0,46,37a12.32,12.32,0,0,0-1.89-.94C44.1,35.92,44.13,35.82,44.62,35.33Z"/><path class="cls-9" d="M65.79,36.76c1.39.26,3.09-.41,4.42-.08-.38.53-.19.64-.23,1.1s0,.66-.07,1c-.09.93.32,1.72.29,2.64,0,1.41-1.25,3.14-.87,4.58a6.57,6.57,0,0,0-3-.39,6.56,6.56,0,0,1-2.61-.4A2.26,2.26,0,0,0,65,43.43c-.07-.36-.47-.7-.54-1.15a4.18,4.18,0,0,1,0-1.32c.36-.79,1.17-1.16,1.22-2.16C65.78,38,65.08,37.64,65.79,36.76Z"/><path class="cls-9" d="M40.44,22c-1.71-.78-1.8-3.61-3.21-4.72-.36.38-.39-.07-.75.08s-.42.36-.68.54a6.33,6.33,0,0,1-2.15.71c-.89.3-1.21.85-2,1.26s-1.72.49-1.88,1.3c-.55-.08-1.29.8-1.47,1.25a17.12,17.12,0,0,0,1.54,2.46c.48.66,1.13,2,1.88,2.41a4.61,4.61,0,0,1,1.41-1.94c.61-.5,1-.39,1.67-.67s.44-.81.82-1.16.89-.42,1.27-.67.65-.62,1-.84A3.38,3.38,0,0,1,40.44,22Z"/><path class="cls-9" d="M28.32,29.64a18.33,18.33,0,0,0-2.85-.43c-.57-.06-.6-.07-.9.29a14.72,14.72,0,0,0-1,1.28c-.29.45-.18.76-.56,1.19a6.8,6.8,0,0,0-1,1.28c-.62,1.13-.94,2.32-2.06,3.1a14.17,14.17,0,0,0-2.24,1.89,28.32,28.32,0,0,1,6.36.21c-.2-1,.49-1.61,1.41-2.05.46-.23.79-.13,1-.57,0-.12-.06-.46,0-.61s.24-.47.31-.74a5.09,5.09,0,0,1,.4-1.53c.29-.54.29-1,.55-1.58a5.89,5.89,0,0,1,.3-.84C28.19,30.17,28.63,30.41,28.32,29.64Z"/><path class="cls-9" d="M58.35,49.51c.7.51.92,1.65,1.38,2.36.21.33.48.62.7,1s.29.52,0,.87c-.12.16-.38.23-.51.4s0,.42-.2.6-.48.08-.68.26-.24.55-.32.83a6.1,6.1,0,0,1-.65,1.62c-.37.51-1.09.8-1.4,1.37-.15.27-.15.58-.29.87a5.75,5.75,0,0,1-.4.55c-.24.5-.19,1.09-.42,1.58-.61-.25-.91-1.88-1.07-2.47a21.35,21.35,0,0,0-1.06-2.68c-.15-.31-.61-.93-.44-1.3.3-.65.8.3,1.3.11s.93-1.53,1.06-1.9,0-.37.36-.65c0,0,.41-.27.48-.3.32-.12,1-.15,1.2-.5s0-.67.07-1A3.84,3.84,0,0,1,58.35,49.51Z"/><path class="cls-10" d="M50.76,35.67c-1.37-1.26-3.27-3.1-5.17-1.83S42.8,37.45,44,39.42c.09.15.36.07.3-.11a4.39,4.39,0,0,1-.25-2.92,4.17,4.17,0,0,1,2.45-2.56c1.64-.45,2.77,1.54,4.15,2,.1,0,.19-.11.11-.18Z"/><path class="cls-10" d="M44.13,39.58a29.83,29.83,0,0,0,3,1.91,3.13,3.13,0,0,0,1.3.49c1.28.07,2.42-1.28,3.23-2.08s2.13-2.17,1.47-3.33a2.06,2.06,0,0,0-2.56-.47.11.11,0,0,0,0,.21,4,4,0,0,0,.85.08,1.82,1.82,0,0,1,.74.08,1.39,1.39,0,0,1,.28,1.73A10.59,10.59,0,0,1,50,40.82a2.06,2.06,0,0,1-2.73.21,33.21,33.21,0,0,0-3-1.66c-.13,0-.19.14-.09.21Z"/><path class="cls-10" d="M45.68,40.05a9.63,9.63,0,0,1,.65-2.42c0-.06-.06-.12-.1-.07A3.45,3.45,0,0,0,45.56,40a.06.06,0,1,0,.12,0Z"/><path class="cls-10" d="M47.11,41a6.67,6.67,0,0,0,.29-.74,6.21,6.21,0,0,0,.3-.82.1.1,0,0,0-.16-.1,2.58,2.58,0,0,0-.67,1.56c0,.13.17.25.24.1Z"/><path class="cls-10" d="M53.68,36.85s0,0,0,0,0,0,0,0Z"/><path class="cls-10" d="M52.76,36.87c1.67.36,3.55.05,5.26.1,2.27.08,4.52.18,6.79.06,2-.1,3.89-.32,5.84-.48a3.92,3.92,0,0,0,2.95-1.12.24.24,0,0,0-.08-.32,6.47,6.47,0,0,0-3.65-.34c-1.83.16-3.66.2-5.49.39s-3.75.48-5.61.76-4,.48-5.89.95a.19.19,0,0,0,0,.37,37.37,37.37,0,0,0,4.7-.64c1.76-.26,3.52-.54,5.28-.77s3.66-.36,5.5-.46c.67,0,1.34-.09,2-.15.39,0,2.08-.27,2.35.08.4.53-3.25.89-3.69.94-1.93.21-3.86.4-5.8.46s-3.86,0-5.79-.07c-1.56,0-3.16.27-4.71.09-.08,0-.1.13,0,.15Z"/><path class="cls-10" d="M49.19,41.93a107.3,107.3,0,0,0,14,3.68,37.79,37.79,0,0,0,6.19.56c1.31,0,2.89.09,3.81-1,.21-.25-.13-.62-.35-.37-1.19,1.3-3.45,1-5,.9a37,37,0,0,1-6.38-.82c-2-.43-4-.88-5.91-1.39a61.32,61.32,0,0,0-6.25-1.69.07.07,0,0,0,0,.14Z"/><path class="cls-10" d="M73.37,35.28a16.23,16.23,0,0,0,.25,1.82,16.6,16.6,0,0,1-.16,2.23,50.67,50.67,0,0,1-.74,5.61.21.21,0,0,0,.41.11A32.38,32.38,0,0,0,74,39.58a9,9,0,0,0-.37-4.32.11.11,0,0,0-.21,0Z"/><path class="cls-10" d="M47.06,33.45a7.83,7.83,0,0,0-1.43-3.61c-1-1.66-1.83-3.4-3-5-1.77-2.51-4.28-5.33-4.92-8.43-.08-.38-.33-1.35.6-1.11.19.06.48.66.58.82a14.37,14.37,0,0,1,.72,1.41c.75,1.64,1.46,3.29,2.22,4.93.85,1.86,1.74,3.68,2.68,5.5s1.32,3.76,2.2,5.56c.15.31.6.06.47-.25-.94-2.19-1.55-4.34-2.7-6.45s-2.09-4.27-3.07-6.44c-.32-.7-2.24-6.55-3.82-5.69-1.92,1.05,1.76,6.17,2.35,7,1.27,1.86,2.73,3.6,3.87,5.54.57,1,1.06,1.95,1.65,2.89a8,8,0,0,1,1.34,3.29c0,.14.23.15.22,0Z"/><path class="cls-10" d="M38,14.77c-2.48-.79-5.6.79-7.7,2-1,.59-2.4,1.31-2.76,2.54a4.55,4.55,0,0,0,.8,3.26A28.57,28.57,0,0,0,34.7,31c1.45,1.23,3.06,2.18,4.56,3.32.75.57,1.47,1.16,2.21,1.73s1.19,1.44,2,1.85a.21.21,0,0,0,.22-.36c-.57-.44-.93-1.06-1.47-1.53s-1.16-.87-1.73-1.33c-1.18-.94-2.44-1.74-3.66-2.63a24.22,24.22,0,0,1-6.7-7.41,29,29,0,0,1-1.77-3,2.63,2.63,0,0,1,.21-3.08,7.52,7.52,0,0,1,1.8-1.3A13.87,13.87,0,0,1,38,14.88a.06.06,0,0,0,0-.11Z"/><path class="cls-10" d="M44.5,35.11c-1.18-1.53-2.52-2.92-3.62-4.53s-1.75-3.14-2.73-4.64c-.08-.12-.32-.06-.26.11a19.9,19.9,0,0,0,2.89,5.14,17.67,17.67,0,0,0,3.63,4c.07.05.13,0,.09-.11Z"/><path class="cls-10" d="M51.89,39.65a31.18,31.18,0,0,0,5.31,1.48c1.12.29,2.51.76,3.64.29.06,0,0-.13,0-.12a13.47,13.47,0,0,1-4-.59c-1.61-.42-3.23-.71-4.8-1.27-.12,0-.21.16-.09.21Z"/><path class="cls-10" d="M36.39,31.77a34.87,34.87,0,0,0-6.1-1.84,26.48,26.48,0,0,0-6.5-.8c-.18,0-.25.29-.05.32,2.2.44,4.47.4,6.68.93a53.2,53.2,0,0,0,5.93,1.53c.07,0,.11-.11,0-.14Z"/><path class="cls-10" d="M23.82,29.13a5.86,5.86,0,0,0-1.75,1.69c-.76.87-1.59,1.69-2.37,2.56A57.54,57.54,0,0,1,15,38.21a.15.15,0,0,0,.17.23C17,37.51,18.32,35.5,19.61,34s2.84-3.21,4.28-4.8c0,0,0-.11-.07-.08Z"/><path class="cls-10" d="M14.94,38.6c4.84-.34,9.74,0,14.6-.1,2.43,0,4.88.15,7.3.35,1.21.1,2.41.23,3.62.26a11,11,0,0,1,3.42.37c.2.07.34-.24.15-.33-1.71-.85-4.1-.48-6-.64-2.68-.22-5.36-.46-8-.42s-5,.17-7.58.1a40.31,40.31,0,0,0-7.53.25c-.09,0-.07.17,0,.16Z"/><path class="cls-10" d="M47.76,41.84a18.3,18.3,0,0,0,1.46,4.95c.8,2.06,1.65,4.09,2.42,6.16,1.56,4.2,3.46,8.25,4.73,12.55a.16.16,0,0,0,.31-.07c-.8-4.19-3-8.14-4.49-12.1s-2.94-7.65-4.33-11.5c0,0-.11,0-.1,0Z"/><path class="cls-10" d="M53,43.15a51.1,51.1,0,0,1,8,11.32c.08.17.35.06.31-.12A9,9,0,0,0,60,51.78c-.62-1-1.3-2-2-3A28.73,28.73,0,0,0,53.19,43c-.11-.1-.28,0-.17.16Z"/><path class="cls-10" d="M61,54.34a47.06,47.06,0,0,0-1.62,5.22,47.69,47.69,0,0,1-2.78,6.09c-.08.15.14.29.23.14a34.59,34.59,0,0,0,4.3-11.39c0-.07-.09-.13-.13-.06Z"/><circle class="cls-2" cx="149.85" cy="65.2" r="2.66"/><path class="cls-2" d="M257,54c0,1,.38.67.45.83C257.4,53.11,256.93,54.08,257,54Z"/><polygon class="cls-2" points="256.08 36.82 256.25 37.13 255.84 34.59 256.08 36.82"/><path class="cls-2" d="M256.09,20.73c-.71,1.52.12,5.83-.14,8.7l-.16.47.58,1.29C256.27,27.71,255.89,23.18,256.09,20.73Z"/><path class="cls-2" d="M257.64,12.14c-.28.53-.24-1.85-.09,2,0-.19.05-.24.07-.36C257.62,13.44,257.62,13,257.64,12.14Z"/><path class="cls-2" d="M257.62,13.78c0,1.7.23-1.11,0,0Z"/><path class="cls-2" d="M257.46,4.65l.12,1.92.07,1c0,.2,0,.24,0,.35l0,.28a1.11,1.11,0,0,0,.05-.24,2,2,0,0,0,.05-.41l.08-1.38c0-.86.08-1.47.14-.79C257.89,1.09,257.73,2.26,257.46,4.65Z"/><path class="cls-2" d="M256.91,1.52h0l.1,1.75A4.26,4.26,0,0,0,257,1.51Z"/><path class="cls-2" d="M257.27,7.26l-.23-4a2.17,2.17,0,0,0,.08,1.81C256.91,4.85,257.12,5.51,257.27,7.26Z"/><path class="cls-2" d="M257.16,8.84c-.16,1.25-.26,2.87-.5.63C256.76,13.74,257.26,13.11,257.16,8.84Z"/><path class="cls-2" d="M255.35,19.9l-.21,1.68.24,1.45C255.27,22.3,255.58,19.8,255.35,19.9Z"/><path class="cls-2" d="M242.79.63c-.14.15.75.4.92.6l1.64-.18A9.14,9.14,0,0,1,242.79.63Z"/><path class="cls-2" d="M243.71,1.23l-2.47.26C243.44,1.52,243.84,1.4,243.71,1.23Z"/><polygon class="cls-2" points="255.56 2.31 256.2 2.26 256.69 7.37 256.28 2.18 254.46 2.32 255.56 2.31"/><polygon class="cls-2" points="233.36 0.61 234.76 0.26 232.27 0.79 233.36 0.61"/><path class="cls-2" d="M227.11.67c1-.29-1.42-.49-.32-.67a29.85,29.85,0,0,0-4.46.53A21.41,21.41,0,0,1,227.11.67Z"/><path class="cls-2" d="M220.14.85c.7-.07,1.41-.19,2.19-.32A16.52,16.52,0,0,0,220.14.85Z"/><path class="cls-2" d="M237,1.41A4.3,4.3,0,0,0,235.09,1l1,.43Z"/><path class="cls-2" d="M236.1,1.42h0l-2.09,0Z"/><path class="cls-2" d="M237.28,1.42H237A.23.23,0,0,0,237.28,1.42Z"/><path class="cls-2" d="M247.71,1.93c-1.45.23-4.47.49-1.54.86C247.21,2.49,245.53,2.29,247.71,1.93Z"/><path class="cls-2" d="M238.48,2l2.63.1c-.06-.11-.53-.28.19-.4Z"/><polygon class="cls-2" points="237.2 2.09 238.48 1.95 237.51 1.91 237.2 2.09"/><path class="cls-2" d="M224.63,1.25a26.86,26.86,0,0,1-3.77.24c1.5.08,3,.13,4.52.12C225.59,1.48,226.24,1.24,224.63,1.25Z"/><path class="cls-2" d="M230.2,1.37l-.25,0C230.11,1.43,230.23,1.45,230.2,1.37Z"/><path class="cls-2" d="M207.09,1.48l.22.08.05-.07Z"/><path class="cls-2" d="M225.64,1.69a7.88,7.88,0,0,0,2.44-.15c-.84,0-1.74.07-2.7.07C225.29,1.67,225.27,1.71,225.64,1.69Z"/><path class="cls-2" d="M216.3,1.05c.59.09,1.25.17,1.95.24A6.2,6.2,0,0,0,216.3,1.05Z"/><path class="cls-2" d="M229.57,1.28l.17,0C229.37,1.17,229.42,1.21,229.57,1.28Z"/><path class="cls-2" d="M229.57,1.28c-.58.06-1,.17-1.49.26.68,0,1.32-.08,1.87-.14A2.45,2.45,0,0,1,229.57,1.28Z"/><path class="cls-2" d="M202.92,4.23c.2-.4,3.16-.77,5.72-.34,2.51-.3.87-1.6-1.33-2.33-.08.17-.08.33-2.67.57.91.21,5.75.5,3.56.86-3.43.21-2.81-.14-4.47-.35,1.41.5-4.37.72-3.62,1.45l3-.26C203.17,3.94,202.08,4.12,202.92,4.23Z"/><path class="cls-2" d="M212.25,1.6l1.06-.05A25.35,25.35,0,0,1,209.63,1c-1.78.2-2.15.35-2.27.48l5.25.05Z"/><path class="cls-2" d="M218.1,1.55c-.84.43-3.39.61-1.83,1.08,3.13,0,2.19-.36,4.06-.55-5,.11,1.45-.24-2.19-.48,1-.07,1.88-.1,2.72-.11-.91-.06-1.78-.12-2.61-.2l.12,0h0c.21.06.29.09,0,.06h-.1a.62.62,0,0,1-.23.16c-1.46-.09-.23-.11.23-.16,0,0,0,0,.06-.07h0l-5.06.23C214.38,1.61,215.72,1.6,218.1,1.55Z"/><path class="cls-2" d="M243.47,3.71c-.16,0-.15-.07-.16-.1C243,3.66,242.86,3.7,243.47,3.71Z"/><path class="cls-2" d="M241.39,3.45a5.78,5.78,0,0,1,1.87-.19c1,.13,0,.21.05.35.72-.11,2.52-.31.26-.52l-.36.06a16.66,16.66,0,0,1-4.29-.74A7.76,7.76,0,0,0,241.39,3.45Z"/><path class="cls-2" d="M229.6,2.61l-4.21.21,2.14.38L227.42,3C229.82,3.06,229.3,2.78,229.6,2.61Z"/><polygon class="cls-2" points="206.61 1.27 207.17 0.81 204.74 1.46 206.61 1.27"/><polygon class="cls-2" points="201.14 1.32 201.34 0.93 199.9 1.17 201.14 1.32"/><path class="cls-2" d="M5.22,113.2l.11.38A1.36,1.36,0,0,0,5.22,113.2Z"/><path class="cls-2" d="M5.25,105.36l-.2-.22C5.16,105.55,5.24,105.72,5.25,105.36Z"/><path class="cls-2" d="M66.76,1.37C65,1,63,.42,63.17.87l.55.43A16.92,16.92,0,0,1,66.76,1.37Z"/><path class="cls-2" d="M3,32l.13-.53-.42-1.22Z"/><path class="cls-2" d="M4.74,33.24l-.28,2.37C4.56,35.08,4.65,34.32,4.74,33.24Z"/><path class="cls-2" d="M49.72,113.52l1.44-.44C48.9,113.08,49.9,113.31,49.72,113.52Z"/><path class="cls-2" d="M145.1,1.48c-1.55-.17-2.79-.24-3.88-.26C143.09,1.47,144.61,1.84,145.1,1.48Z"/><path class="cls-2" d="M.62,110.79c.08.76.16,1.08.26,1.06C.81,111.07.72,110.63.62,110.79Z"/><path class="cls-2" d="M136.73,1.22l.82.1c1.14-.07,2.28-.13,3.67-.1A14.08,14.08,0,0,0,136.73,1.22Z"/><path class="cls-2" d="M227.12,113.88l.4.05C227.56,113.88,227.38,113.87,227.12,113.88Z"/><path class="cls-2" d="M256.38,92c0,.51,0,1.34,0,2.12A17.57,17.57,0,0,0,256.38,92Z"/><path class="cls-2" d="M179.12,1.13c1.16,0,.19,0,0,0Z"/><path class="cls-2" d="M184.77,2.85c-.25,0-.44.11-.47.21A.89.89,0,0,1,184.77,2.85Z"/><path class="cls-2" d="M125.17,3.92h-.1C125.42,4,125.36,4,125.17,3.92Z"/><path class="cls-2" d="M180.87,1.33c-.44-.05-.94-.1-1.48-.13C179.63,1.24,180.08,1.28,180.87,1.33Z"/><path class="cls-2" d="M180.63,1.13l1,0C181.79,1.1,181.67,1.05,180.63,1.13Z"/><path class="cls-2" d="M177.51,1.16c.66,0,1.28,0,1.88,0-.23,0-.33-.05-.27-.07Z"/><path class="cls-2" d="M132.07,115l.25,0C133.49,114.9,133,114.93,132.07,115Z"/><path class="cls-2" d="M36.56,5.87l.14,0h-.17Z"/><path class="cls-2" d="M32.4,6.2a9.27,9.27,0,0,1,4.13-.36L35.15,4.59Z"/><path class="cls-2" d="M22.25,113.86l-2.93-.39c3.53-.64,6.09-.42,3.34-1-.41,1.36-11.37.14-11.78,1.5L9,113.71c.55,0,.64-.07,1.19,0a5.47,5.47,0,0,0-3.35.2,3.33,3.33,0,0,1-.71.43,3.58,3.58,0,0,1-1.33.17v-.18c.1-1,.3-1.47.46-1.08,0-.23-.11-.42-.17-.76l-.16-1.88c0-1.09.26-.83.23.26L5,105.1l0,0c-.21-.82-.54-2.67-.68-3.57.2-1.46.15.73.31.35l-.32-3.17c.35-1.29.69,1.34.64,3.53,1.35-3-.34-2.63.45-9l.17,3c.77-1.93.49-4.27,1-7.65-.25.8-1.21,6.78-1.55,3.34a15.14,15.14,0,0,0-.12-4.11c.48,0,.37-1.83.34-4.1l.64.16c-.19-2.45-.51-2.26-.8-3.7.06-2.74.56-3.3,1-4,.1-4.37-.8,3-.92-2.15a61.75,61.75,0,0,0-.4-10.56c.22-2.54.39.45.58-.46l-.51-2.26c0-.55.16-.38.24-.29-.19-1.9-.64-.15-.81-3.14-.7-.81,1-6.15.23-9.85.18-.91.39.44.64.16A83.2,83.2,0,0,0,4,39.17l.42-3.56C4,38.22,3.41,34.89,3,32c-.24.92-.44,1.71-.54,2.24l-.34-4.66c.11-.56.33-.09.59.67l-.15-.85c.24-1.67.61-.81,1,.39l-.39,1.68c.39,1.15.82,2.23,1.19,2A10,10,0,0,1,4.1,31.9c.1.3.2.49.26.35a4.49,4.49,0,0,0-.24-1.4l.72-1.06-.29-.26L5,23.43c-.72-4.37-1.77-8.16-2.07-15.09.53,1.72.86.37,1.48.46-.66,1.89.27,5.37.14,9,.07-1.88.37-1.46.47-1l-.6-6.4c.26.07.35-.27.41-.84l.07-1L5,8A1.49,1.49,0,0,1,5,7.55c-.31.15-.49,0-.6-.42a10.66,10.66,0,0,1-.19-1.9,23.68,23.68,0,0,0,2.53-.18.22.22,0,0,1,0,.25.65.65,0,0,1-.3.2,3.94,3.94,0,0,1-1.63.15A2.35,2.35,0,0,0,6,5.79a1.91,1.91,0,0,0,.44-.15l.23-.1.42-.12a7.84,7.84,0,0,1,4-.31,3.63,3.63,0,0,0-1.5.13c1.81-.3,6.24-.06,5.2.23H14c5.15.12,15.68,0,16.45-.85a3.31,3.31,0,0,1-1,1.2L38.67,3c-.81.73,2.3,2.47-2,2.88a25.24,25.24,0,0,0,5.33,0c-.84-.1-2.09-1.06-.94-1.12a51.81,51.81,0,0,0,6,1.13c-1.26-.16.13-1.31,2.12-1.27-.31.17.16,1.13-.56,1.25l4.93-1.12c-1.23.2-.21.95.89,1.27-.51-.22,4.27,0,5.58-.09L58,5.6c5.57.17,5.5-1.58,11-1.52-.67.23-1.65,1.43,1.16,1.57A33.31,33.31,0,0,1,80.79,2.44l.94.33,3.75-.38A114.82,114.82,0,0,1,73,5.79c2.09.26.58.39,3.7.36,1.11.31-1.7.47-2.62.49l7.27.2c-.32-.68,5.56-.68,5.29-1.24l-7.9.7c-.32-.67,4.56-1.91,9.72-1.79,1.31.27-1,1.2-.88,1.42A25.44,25.44,0,0,1,93,5.65L90.77,6c2.87.26,4.68-.89,8.13-.25,1.19,0,3.55.87,3.75.47-1.94-.77-2.32-3.14-1-3.72.41.06,6.24.74,7.6,1.12,2,.6-2.94,1.43-1.27,2,.07-.19,1.15-.41,1.6-.49,1.25.16-.51.57,2.2.49.45-.68,5.52.06,1.28-.58,2.66-.19,2.82.14,5.94.11-1-.44,2.8-1.49,5.46-1.69-.15.17.44.4.73.5,5.44.06,8.37.37,13.44.38.47.16,2.92.36,1.87.66a14.12,14.12,0,0,1,3-.37c3,.59-3.49.09-1.18.8.2-.4,4-.55,6.28-.79-.69-.62-5.15-.12-7.39.13,0-.85,3.88-1.73,9.18-2.12,4.22-.21,1.83.54,2.56.42,7.92.15,6.75-1.47,13.33-.86,2.6.54.11,1.07.69,1.46-3.43.2-5.27-.35-7.6-.32l2.87.25a20.88,20.88,0,0,1-4.64.16c2.19.48,13.38.09,19.49.54,1.09-.18,3-.37,2.07-.59l-1.93.08c-1.78-.43,3.64-.6,1.19-.8a44.86,44.86,0,0,1,9.15-.54l.69.61a9.2,9.2,0,0,0-3.41-.18c1.52-.27,5.59.83,7.26,0l-2.56-.42a49.87,49.87,0,0,1,9.06-.77c-1.47-.6-.75.07-3.05-.64,2,.88-8.27,0-5.07.89-2.36-.82-4.08-.35-7.17-1,.1.2,1.09.39-1.62.29a4.38,4.38,0,0,1-.6.18l-.18,0,.15,0c-.12,0-.13,0,0,0a5.59,5.59,0,0,1,1.39.31c-1.35.47-5.67.45-7.13.69-1.61-.1.68-.23-.2-.45l-2.19.36c-.21-.45-4.28-.74-.48-1l-3.42,0a32.44,32.44,0,0,0-6.48-.16c-1.62-.1-4.07.5-2.67.15l-5.36.27-.05-.11c-5.29,0-10.88.75-16.93-.07a52.17,52.17,0,0,1-6.6.13l-.58-.39c-2.28.14-6.86-.39-7.84,0-2.47-1-11.09-.23-15.11-.42l-.15.51c-2.77,0-5.42.12-8.86.32l.21.45c-3,.37-7.61-.32-12.29-.28a6.52,6.52,0,0,1,2.34,0c-5.59-1-11.8.74-16.88,0a11.51,11.51,0,0,1-3.06,0,2.72,2.72,0,0,0,.31,0h-.52l-1.76-.24a13.68,13.68,0,0,0,1.48.24c-1,0-2.45.06-3.9.18l-.62-.49-.33,0c-1.43-.18-1.15.23-.39.59a17.63,17.63,0,0,0-1.92.29c-1.15-.78-3.8.26-5.38-.57-1,.41-7.29.31-8.06,1.16,0-.12-.48-.17.31-.17a21.43,21.43,0,0,0-4.68,0l-.69-.61-3.53.82c-2.14-.37-3-.59-.9-1.06-5.14.73-4.17.27-8.55,1l.22-.39c-1.57,0-4.06.54-5,.21a61.61,61.61,0,0,0-8.88-.41l-6.46,0L1,2.05.94,5.27.88,6.84l0,.78,0,.54C2,6.42.29,12.33,1.19,12.69c-.27.52-.43,1.77-.67.32.27,4.58-.44,6.88.32,10-.27.53-.4-1-.56-.51a5.34,5.34,0,0,1,.07,1.93c-.16.47-.23-.67-.35-1.4.05,4.68.9,5.15,1.69,5.49a10.23,10.23,0,0,0,.2,5.27c-.26.83-.53,2.2-.63-.7,0,1.63-.38,10,.26,10.15a10.28,10.28,0,0,0,0,2.72c0,3.67-.1,4,0,7.59l.11-1c.77,1.43.17,3,.26,5.9l-.08-.08c-.55,6.66.27,2.88-.37,9.45l.48-.36c1,.61-.6,5.82-.21,9.63L2,75.76c.36,2.08-1.4,5.82-1.53,7.91C.35,84.13.3,83,.23,82.32c-.61,5.47.63.7.78,4.79-.34.75-.87-1-.93,1.77-.27,1.37,1.1,8,.45,11.72.26-.83.52-1.65.72.25.09,2.9-1,7.85-.16,10.47-.08.37-.14.51-.21.53l0,.44,0,.62L1,114.54c.05,1.1.1,2.31.16,3.48a38.41,38.41,0,0,0,5.7-.5c2.05,1.66,13.81-.8,13.76.73l6.83-.09-.18.16a24.47,24.47,0,0,0,7.45-.63c1,.1.27.25.18.33a46.4,46.4,0,0,0,12.37-.52l.55.49c1.45-.28,9.23.78,15.49.2a1.25,1.25,0,0,1-.69.22c7-.58,16.85,1.38,19.43-.43l4.65-.44c-6-.14.89-.78-1.58-1.08,2.36-.11,6.11.54,3.21.63L87.9,117c-1.06.94,7.47.34,7.31,1,11.83,0,23.35.47,34.43.51l-1.27-.73,3.86,0c1,.17,1.36.58-1.39.54a10,10,0,0,0,4.7-.5c5.4.29-2.11.85-.45.87l2.24-.06-.5-.08a18.19,18.19,0,0,1,5.29-.58c2.1.15,1.08.45,1.9.48,0,0,.28.07,1.27,0l4.87.06-1.95-.58c2.16-.28,4.58,0,2.33-.62,3.3,1,18.17.36,20.19.68a63.36,63.36,0,0,1,9.7-.37c-.92-.12-1.47-.77,1.72-.69-1.16,1.34,5.84.58,8.41,1.55-2.3-.64,9.07-.16,5.45-1.07,2.66.11.17.5,2.18.82,6.33-.52,14,.34,21.78.16.12-.17-1.19-.44.49-.7l4.13.88c1.55-.09,1.42-1,4.25-.41-.4-.15-1-.37,0-.43,4.2.24,8.44.29,12.71.28l14.45-.13V111q0-2.67.09-5.34c.11-3.55.31-7.1.68-10.62-.35,2.11-.38.7-.39-.91-.08,1-.44,0-.67.18l.66-6.51c-.66-1.19,0-7-.68-7.67l.11,2.06c-.74-2.74-1.66,3.84-2.61,3.44.85,3.07-1.26,8.1-.05,13.15-.19,1.11-.3-1-.53-.36a15.43,15.43,0,0,1,.32,5.69l-.11-.33c0,2.58,0,4.68,0,6.66,0,.49,0,1,0,1.46l0,.66,0,.4c0,.48-.08,1-.13,1.5l-1.85-.16h-.35l-.51,0-1.06,0-2.3-.07.67.47a20.74,20.74,0,0,1-3.26-.33c-2.23.72,5.45,0,3.42.83-2.57-1-13.68,0-15.42-1.11-3,0,.88.55-2.11.54l-.79-.29-.75.38c-2-.06-2.95-.43-3-.69.48,0,1.35-.07,1.86-.09-2.54-.35-7.16.12-8,0l2.87.18c-8.14.28-18.09-.11-26,.49l.6.23c-6,.41-4.81-.25-11.41-.06l.24,0a29.48,29.48,0,0,1-4.89.31c1.67-.26-3.13-.51-.95-.8-6.52.44-3.22.35-7.53,1.18l-1-.37a16.55,16.55,0,0,1-4.88.61c2.7-.32-2.11-.57.92-1-6.91-.81-10.27.82-13.44-.37-3.17,1,6,.57,4.21.79,1.49.34-2.62.77-4.79.67s-3.76-1.32-9.32-1.3c.56,0,.6-.07,1.15-.07-2.08-.26-4.08.36-6.63-.07-1.43.62-3.31,0-3.72.76l5.09-.18c-2.88.2-5.59,1.13-10.35.68a17.51,17.51,0,0,1,2.76-.49c-1.4-.23-2.68.16-4.13-.08.41-.79,6.2-.17,9.29-.78-1.49-.33-5.85.58-4.3-.28-2.23,1.09-5.47-.14-9.23.69l.24-.47a21.92,21.92,0,0,1-2.92.29l2-.62c-3,.53-5.87-.46-8.79-.17,6.12,0,1.37.57,4,.92-7.55.63-4.34-1.25-12.79-1,1.14-.07,4.29.29,2.51.51a34,34,0,0,1-4.72-.53c-5.6.1.86.49-1.53.78-1.9-.58-2.74.23-5.2.42l0-.48c-6.37-.31-1.69,1-7.43.63l2.43-.67-3,.17.62-.55a33.32,33.32,0,0,1-7.46.15c.74.34-.42.88-3.24.89-1.93-.29,1.08-.46-2.93-.39a5.61,5.61,0,0,1,3.64-.24c.18-.15.89-.3,1.08-.45a44.33,44.33,0,0,0-6.67-.07,10.87,10.87,0,0,1,1.57.11l-5.81.67c-.91-.18-.19-.33.53-.47-1.17,0-2,.27-3.72.31.45-.39.34-.79,2.79-1l-5.53.44c-.37-.17-2.84-.47-2.12-.62-3.07-.23-7.52.76-11.59.46a6.18,6.18,0,0,1-1.5.21c-3.82-.09-7.2-.57-11.73,0l-2.57-.7c-3.55.16,3.48.89-2.43,1.15-4.18.23-1.56-.6-3-.79a29.75,29.75,0,0,1-9.54.5C20.06,113.81,21.06,113.91,22.25,113.86ZM5,92c.1.85.41,2.54.12,3.16C4.61,94.21,4.88,93.46,5,92ZM3.87,25.53a7.48,7.48,0,0,1-.1,2.7A15.93,15.93,0,0,1,3.87,25.53Zm162.53-24-.09,0C164.42,1.36,165.09,1.44,166.4,1.53Zm3.93.21c.39-.07.37-.14.2-.21a7.56,7.56,0,0,1-2.16.1A4.15,4.15,0,0,0,170.33,1.74ZM144.46,118.29l-.76-.13C145.42,118,144.94,118.15,144.46,118.29Z"/><path class="cls-2" d="M4.53,33.07a.57.57,0,0,1-.26.36C4.35,33.76,4.45,33.77,4.53,33.07Z"/><path class="cls-2" d="M49.45,113.61h.13a.28.28,0,0,0,.14-.09Z"/><path class="cls-2" d="M109.52,5.83A7.84,7.84,0,0,1,108,5.58C107.91,5.7,108.28,5.79,109.52,5.83Z"/><path class="cls-2" d="M191.13.92,188.62,1a11.53,11.53,0,0,1,2.26.16C190.83,1.09,190.35.92,191.13.92Z"/><path class="cls-2" d="M213,3.9c.37-.06.78,0,1.14-.06l-.1-.23C212.44,3.63,211.34,3.81,213,3.9Z"/><path class="cls-2" d="M193.46,2.52c.2.4,1.78.27,3.54.19h-.31C197.21,2.14,195.33,2.33,193.46,2.52Z"/><path class="cls-2" d="M197.41,2.7c.54,0,1.1,0,1.63,0C199.24,2.46,198.38,2.64,197.41,2.7Z"/><path class="cls-2" d="M175.31,1.47c.83.1.52-.52,1-.36C177.24.6,170.74,1.74,175.31,1.47Z"/><polygon class="cls-2" points="194.89 3.86 194.26 3.35 193.27 3.76 194.89 3.86"/><path class="cls-2" d="M181,3.49l2.81.14c0-.09.32-.14.76-.17A19.68,19.68,0,0,0,181,3.49Z"/><path class="cls-2" d="M184.55,3.46a14.49,14.49,0,0,0,2.26-.09C186.33,3.38,185.27,3.4,184.55,3.46Z"/><polygon class="cls-2" points="191.04 4.01 190.21 3.9 188.22 3.87 191.04 4.01"/><path class="cls-2" d="M150.72,3.39l-3.07.15c-.31.17.52.27,1.67.2C150.05,3.62,151.19,3.56,150.72,3.39Z"/><path class="cls-2" d="M160,4.76a3.89,3.89,0,0,1-1.35-.38l-.1.62Z"/><path class="cls-2" d="M151.05,4.91c-.3.17-4.45.49-.56.45C150.8,5.19,153.88,5.05,151.05,4.91Z"/><polygon class="cls-2" points="104.77 4.12 105.55 4.12 105.44 3.1 104.77 4.12"/><path class="cls-2" d="M64,6.56c3.64.24.87-.63,4.15-.32C69,6,65.44,6,66.31,5.78,64.12,6,63,5.89,64,6.56Z"/><path class="cls-2" d="M66.31,5.78c.35,0,.73-.09,1.12-.16C66.8,5.69,66.5,5.74,66.31,5.78Z"/><polygon class="cls-2" points="256.92 83.45 257.13 81.11 256.79 82.62 256.92 83.45"/><path class="cls-2" d="M256.17,79l.65-.55L256.23,77A7.39,7.39,0,0,1,256.17,79Z"/><path class="cls-2" d="M6.34,85.52l-.15-.18a5.64,5.64,0,0,0-.21,2Z"/><path class="cls-2" d="M6.06,113.35H6a1.16,1.16,0,0,0-.16.58A2.94,2.94,0,0,1,6.06,113.35Z"/><path class="cls-2" d="M30.4,112.6c-1.09,0-2.37.11-3.46.08C29.31,112.58,30.69,113.33,30.4,112.6Z"/></g></g></g></svg>