<svg xmlns="http://www.w3.org/2000/svg" viewBox="0 0 236.61 97.14"><defs><style>.cls-1{isolation:isolate;}.cls-2,.cls-3{fill:#414042;}.cls-3{stroke:#000;stroke-linecap:round;stroke-linejoin:round;stroke-width:0;}.cls-4,.cls-5,.cls-6,.cls-7,.cls-8{fill:#e77874;}.cls-5,.cls-6,.cls-7,.cls-8{mix-blend-mode:multiply;}.cls-6{opacity:0.35;}.cls-7{opacity:0.5;}.cls-8{opacity:0.2;}.cls-9{fill:#ea8b88;}.cls-10{fill:#1d1d1b;}</style></defs><title>lady-ann-3</title><g class="cls-1"><g id="Layer_2" data-name="Layer 2"><g id="Layer_1-2" data-name="Layer 1"><path class="cls-2" d="M167.43,41.31l.21-.06-.07-.1Z"/><path class="cls-2" d="M181.08,41.5c.15-.27.28-.51.39-.73h.05a3.74,3.74,0,0,1,1.32-.25,8.7,8.7,0,0,0,1.51-.08,1.88,1.88,0,0,1,.58,0,1.24,1.24,0,0,1,.4.09.91.91,0,0,0,.63.08l.13,0a3.1,3.1,0,0,0,.42.08.58.58,0,0,1,.21.07l.28.06c1.31,0,1.51-.62,1.51-1v-.1h1.13L188.35,39a.85.85,0,0,0-.59-.36l-.06,0a2.15,2.15,0,0,0-1.11-.35,4.1,4.1,0,0,1-.82-.11l-.22,0h-.82a4.38,4.38,0,0,1-.62,0h-.7L183,38l.37-.76,0-.09a5.82,5.82,0,0,1,.33-.91,8,8,0,0,1,.52-1l.14-.33q.16-.34.33-.78c.11-.29.2-.57.26-.77a1.23,1.23,0,0,1,.17-.32,3.57,3.57,0,0,0,.32-.51l.44-.9.43-1.19a3.61,3.61,0,0,0,.38-1s0-.06.05-.19l.12-.22h0l.36-.76.58-1.48a14.63,14.63,0,0,0,.44-1.63c.1-.52.19-1,.26-1.54,0-.23.08-.48.13-.74a2.39,2.39,0,0,0,0-1v-.31a2.33,2.33,0,0,0-.08-.61c0-.12-.06-.19-.07-.23v-.12l-.27-.43.3-.32H188l-.06-.08a1.49,1.49,0,0,0-.56-.36,1.59,1.59,0,0,0-.45-.08h-.31l-.55.07a1.41,1.41,0,0,0-.8.35l-.29.08-1.47.85-.72.55-.23.2a2,2,0,0,0-.7.48,2.79,2.79,0,0,0-.37.44l-.53.37-.58.62-.55.44-.67.62a5.29,5.29,0,0,1-.58.58l-1.67,1.46-.06.07a3.74,3.74,0,0,1-.87.86l-.39.4-.06.08a3.69,3.69,0,0,1-.29.4,2.27,2.27,0,0,1-.4.33l-.18.18a8.54,8.54,0,0,1-.59.79l-.65.75-.58.52L170.16,34l-.34.31a1.53,1.53,0,0,0-.37.46l-2,2.43h0l-.06-.06-.1.14h0l-.06.09-.16.21a9.61,9.61,0,0,1-.78.91h0l-.09.06,0,.12-.41.36.08.07c-.14.17-.29.34-.43.52l-.74,1a5.38,5.38,0,0,1-.4.47l-.52.6a3.75,3.75,0,0,0-.44.53l-.22.31-2.29.76-2.48.78-2.56.77c-.82.25-1.69.53-2.55.83l-.6.16-.22.07-3.05.89-2.77.46-.13,0c-.18.1-.36.18-.55.27a22.6,22.6,0,0,1-3.41,1.33h0l-.53.16-1.37.39,1.56.4a9.84,9.84,0,0,0,1.26.24l1.49.13h.57a3.7,3.7,0,0,0,.62,0,.91.91,0,0,0,.27-.06l1.68-.16,1.1-.23c.43-.09.85-.19,1.25-.3l1.94-.5a.76.76,0,0,0,.32-.11l.07,0h.09a2.52,2.52,0,0,0,.72-.14l.1-.06a.69.69,0,0,1,.18-.06,3.45,3.45,0,0,0,.51-.16l.88-.22,4.29-1.49-1.72,1.86a3,3,0,0,1-.43.56l-1.39,1.39-.25.4c-.2.16-.38.34-.56.51l-.49.5a4.38,4.38,0,0,0-.54.51,5.32,5.32,0,0,0-.36.47,6.61,6.61,0,0,0-.6.49c-.2.18-.39.36-.59.56l-.59.67a.78.78,0,0,1-.26.25l-.12.11c-.18.24-.29.29-.32.3l-1.12,1s0,0-.15.1l-.49.5L146.68,59l-1.11.61-.31.13a.32.32,0,0,1-.14,0,1.31,1.31,0,0,0-.61.15A1.78,1.78,0,0,1,144,60h-.36l-.21,0-.67-.34v0a.65.65,0,0,0-.05-.28.79.79,0,0,0,0-.25l-.05-.3-.1-.1c-.11-.28-.42-.42-1-.42l-.23.06-.13.12a1.59,1.59,0,0,0-.47.72,1.28,1.28,0,0,0-.07.41l-.06.86h-.18l.2.4h-.07l.11.09.22.42a1.51,1.51,0,0,0,.49.58l.56.43-.33.08H142l.07,0a3,3,0,0,0,1.56.4,5.23,5.23,0,0,0,1.06-.09c.27-.06.51-.13.74-.2l1.82-.61v.14l.2-.2,1.66-.55H148l.32-.33.25-.17a2.32,2.32,0,0,0,.53-.41l1.81-1.5.21-.25.62-.47.46-.46.72-.56,1.77-1.72L156,54.2l3.17-3.37.52-.48,1.23-1.43a4,4,0,0,0,.79-.8c.18-.24.38-.49.65-.81a4.07,4.07,0,0,1,.51-.59c.21-.22.44-.46.68-.74l.88-.93c.39-.14.77-.27,1.14-.37l1.45-.45.33-.12h.09a3.3,3.3,0,0,0,.69-.19,5.74,5.74,0,0,1,.68-.21l.46-.1.06-.06h0v0l.25-.07.28-.09.13,0,.16-.06.63-.15.53-.1v0l.18,0,0-.05,1.45-.47.76-.16.21-.07a.74.74,0,0,0,.34-.06l4-.75-1.86,3.47a4,4,0,0,1-.21.47c-.09.19-.18.38-.25.57l-.07.19-.38.59q-.21.42-.45,1c-.16.37-.32.76-.43,1.08l-.44.88q-.24.48-.45,1l-.31.71,0-.56-.93,2.31a1.9,1.9,0,0,1-.18.42v0l-.06.13-.32.88c-.06.17-.11.34-.17.51s-.2.55-.29.79a6.86,6.86,0,0,1-.29.66h0c-.1.21-.21.41-.32.6l-.17.65a1.14,1.14,0,0,0-.06.25.66.66,0,0,0-.12.33.82.82,0,0,0-.11.39v.6a1.71,1.71,0,0,0,.17.87l.5.66h.32a1.44,1.44,0,0,0,.84-.16.77.77,0,0,0,.33-.49,2.87,2.87,0,0,0,.18-.47,1,1,0,0,1,.13-.29l.29-.54a4.24,4.24,0,0,0,.17-.5.71.71,0,0,1,.11-.21l.06-.09V58a1.12,1.12,0,0,0,.1-.27l1.42-3.3.77-2,.41-.93,0-.14h0a1,1,0,0,0,.1-.27,1.55,1.55,0,0,0,.2-.35l.08-.29.79-1.55.13-.37,1.08-2,.78-1.59c.14-.28.3-.62.49-1l.59-1.21Zm-28.64,6.9-.15-.23ZM141.92,59.62h0ZM169.5,40.75l-.13,0a7.45,7.45,0,0,1-.83.23,1.65,1.65,0,0,1-.32,0l-.09,0-.11,0-.21,0v0l-.15.05h0l.32-.48a2.31,2.31,0,0,1,.2-.24l0,0,.2-.21h0l.1-.16s.07-.08.1-.13a2.46,2.46,0,0,1,.19-.32c0-.06.09-.13.13-.17l.23-.31v0l.48-.51c.26-.28.52-.55.79-.82l.2-.16v-.12a.3.3,0,0,0,0-.08l0,0a3.9,3.9,0,0,1,.43-.54c.18-.2.36-.39.53-.55s.29-.31.54-.6a3.65,3.65,0,0,0,.31-.38l.92-1.16,2.92-3.18,2.38-2.49a7.23,7.23,0,0,0,.88-.8c.25-.26.5-.51.77-.74l1.49-1.39.83-.58a3.79,3.79,0,0,0,.72-.66,2.66,2.66,0,0,1,.49-.32l.28-.25.66-.45.8-.5a1.6,1.6,0,0,0,.4-.19l.07-.05L186,23.77a1.74,1.74,0,0,0-.17.53c0,.18,0,.32-.06.44l-.57,1.77-.41.93,0,.08a.59.59,0,0,0-.16.33c-.07.22-.15.45-.24.68s-.17.43-.23.62a1.29,1.29,0,0,0-.19.37l-.08.06-.06.15c-.28.66-.54,1.28-.78,1.87s-.51,1.14-.83,1.75c-.17.42-.36.84-.55,1.24a14.23,14.23,0,0,0-.57,1.32l-.56,1.17-.2.37-.13.2a3,3,0,0,0-.26.48l-.1.22-1.18.32-2.19.32a10.29,10.29,0,0,1-1.5.32,14.27,14.27,0,0,0-1.54.32l-.7.24c-.66.13-1.15.24-1.5.3s-.59.15-.92.25l-.17,0-.06.11-.27.08h0l-.07,0Zm-2.07.56.14-.16.07.1ZM186.61,22Z"/><path class="cls-3" d="M133.93,59.63h0"/><line class="cls-3" x1="144.29" y1="48.17" x2="144.44" y2="48.4"/><line class="cls-3" x1="186.61" y1="21.95" x2="186.61" y2="21.95"/><path class="cls-2" d="M217,46.79a.94.94,0,0,0-.92-.18c-.2.07-.49.24-1.11,1a14.74,14.74,0,0,1-2.87,2.81,11.68,11.68,0,0,1-4.33,2.16l0-.5a10.68,10.68,0,0,1,.54-2.95l.05-.17-.11-.19c0-.07.09-.21.2-.43l.06-.12v-.13c-.22-2.33-1.57-2.82-2.66-2.82h-.6l-.19,0a3.1,3.1,0,0,0-1,.63,5.65,5.65,0,0,0-1.89,1.24,2.26,2.26,0,0,0,0-.37l0-.15c0-.4-.26-1.09-1.44-1.18h0a1.46,1.46,0,0,0-.94.46l-.09.07,0,.12c-.14.39-.27.78-.42,1.16l-.26.32A14.46,14.46,0,0,1,196,50.46a11.68,11.68,0,0,1-4.33,2.16l0-.5a10.73,10.73,0,0,1,.54-2.95l.05-.17-.11-.19c0-.07.09-.21.2-.43l.06-.12v-.13c-.22-2.33-1.56-2.82-2.66-2.82h-.6l-.18,0a3.17,3.17,0,0,0-1,.63A5.59,5.59,0,0,0,186,47.22a2.26,2.26,0,0,0,0-.37l0-.15c0-.4-.26-1.09-1.44-1.18h0a1.46,1.46,0,0,0-.94.46l-.09.08,0,.11a25,25,0,0,1-1.91,4.36,18.54,18.54,0,0,0-1.47,5v.12c.07.68.63,1.13,1.66,1.34l.1,0,.1,0a1,1,0,0,0,.56-.3,8.58,8.58,0,0,0,1.33-2.08l0-.12a4,4,0,0,1,.37-1.17l.11,0,.1-.16a9.25,9.25,0,0,1,1.31-1.89l.14,0,.07-.11c.33-.48.5-.69.57-.78l.16-.12a28.93,28.93,0,0,1,2.88-2.46l0,.37c-.85,3.16-.93,3.93-.9,4.26a2.62,2.62,0,0,0,.13.6c.18,1.32,1.28,2.1,3.29,2.3h.13a6.19,6.19,0,0,0,2-.66A18.07,18.07,0,0,0,196.77,53a13.19,13.19,0,0,0-.58,2.63v.12c.07.68.63,1.13,1.66,1.34l.1,0,.1,0a1,1,0,0,0,.56-.3,8.58,8.58,0,0,0,1.33-2.08l0-.12a4,4,0,0,1,.37-1.17l.11,0,.1-.16a9.25,9.25,0,0,1,1.31-1.89l.14,0,.08-.11a8.26,8.26,0,0,1,.56-.78l.16-.12a30.32,30.32,0,0,1,2.88-2.46l0,.37c-.85,3.16-.93,3.93-.9,4.26a2.62,2.62,0,0,0,.13.6c.18,1.32,1.29,2.1,3.29,2.3h.13a6.19,6.19,0,0,0,2-.66,18.17,18.17,0,0,0,3.52-2.52,19.79,19.79,0,0,0,3-3.69C217.06,48,217.55,47.22,217,46.79Z"/><path class="cls-2" d="M71.69,25.48a6.09,6.09,0,0,1,3.62,2.29,6.36,6.36,0,0,1,.76,2.33c-.46,1.63-1.94,3.26-4.45,4.91a28.36,28.36,0,0,1-8.76,3.54,8.79,8.79,0,0,0-2.64.59,6.06,6.06,0,0,1-.91-.1l-3.51.49a.9.9,0,0,0-.42-.14h-.24c-.32,0-1.14,1.2-2.43,3.61-.42.28-1,1.34-1.78,3.17q-.37,0-.9,1.77a27.62,27.62,0,0,0-2.09,4.24,24.39,24.39,0,0,0-2.4,4.66c-.27.07-.63.73-1.07,2a13.1,13.1,0,0,0-2.26,3.86,2.74,2.74,0,0,0-.53.55h-.2q8,1.26,12.55,2.09l.48-.11,1.26.25.8-.14a14.66,14.66,0,0,1,2.64.24,41.4,41.4,0,0,0,8.59-1,.74.74,0,0,0,.41.18h-.07A1.55,1.55,0,0,1,69.33,64h.45c0,.35,0,.52-.11.52h-.1c0-.34.37-.52,1.11-.52h.8a5.48,5.48,0,0,1-2.64,1.91,18.66,18.66,0,0,1-4.31,1.39h-.66v.25a1.59,1.59,0,0,1-.8-.14,18.51,18.51,0,0,0-3.72.63c-.72-.07-1.3-.11-1.74-.11h-.14a4.53,4.53,0,0,0-.94.11,23.33,23.33,0,0,1-4-.49l-.45.14L49,67.1v.11l-5.46-1-2.75-.48-.27.13a1.16,1.16,0,0,0-.49-.13h-.1c-.1,0-.43.53-1,1.59a3.73,3.73,0,0,0-1,1.4q-.21.06-4.17,4.31a29.55,29.55,0,0,1-4.11,2.68c0,.37-.77.89-2.26,1.56-3.45,1.92-6.15,2.89-8.1,2.89,0,0-1,.2-2.88.48a3,3,0,0,0-1.29-.24h-.11c.14,0,.21.09.21.28l-.66-.28h-.28c-2.45,0-5.05-1.19-7.78-3.58a14.13,14.13,0,0,1-2.2-4l.14-.94V70.68c.49-1.18.73-1.65.73-1.42H4.79c.65-1.62,1.24-2.44,1.77-2.44,0-.55.79-1.2,2.37-1.94q0-1.18,6.33-2.75a47.89,47.89,0,0,1,8-1l.59.1.73-.1c.93.07,1.75.1,2.47.1h.38l1,.07-.14.07q6.68.87,10.6,1.56,3.27-4,3.27-5a9.08,9.08,0,0,0,1.39-3q.76-1.14,4.07-8.41a26,26,0,0,0,2.85-5.32c1-.86,1.43-1.49,1.43-1.88v-.14a22.43,22.43,0,0,1-6.3-2.57q-7.4-5-7.4-8.07l1.18-.31c.3,0,1.22.89,2.75,2.67q6.12,5.19,10.18,5.71l1.22.24q5.14-6.41,9.25-8.55a15.67,15.67,0,0,1,5.08-2.16l.52.07c.07-.21.44-.39,1.11-.56l.52.11A4.46,4.46,0,0,0,71.69,25.48ZM6.91,71.07q0,4.73,5.53,6.6l2.82.59a1.1,1.1,0,0,1,.55-.1,1.77,1.77,0,0,1,.39.07s1.56-.31,4.69-.87a10,10,0,0,1,2.16-.77,38.43,38.43,0,0,0,6.74-3.89,59,59,0,0,0,6.09-5.49h.62v.24h-.34v.21c0,.07-.12.1-.35.1v-.59a10,10,0,0,0,1.6-2v.14q-3.66-.6-7.17-.87s.08-.07.25-.07a1.1,1.1,0,0,0-.32.1,27.52,27.52,0,0,1-4.31-.59c-.07,0-.1.17-.1.42a6.32,6.32,0,0,0-1.22-.42Q9.95,63.83,7.36,70Zm49.69-34c0-.05-.05-.07-.14-.07l3.3-.38a1.1,1.1,0,0,0,.53.14q5.87-1.34,7.61-2.44,5.14-2.57,5.15-3.86.21,0,.48-.48V28.78c-.14-.32-1-.68-2.53-1.07h-.28Q64.15,29.14,60.57,33C57.92,35.41,56.6,36.76,56.6,37.06ZM71.69,63.38c.37,0,.56.3.56.77a3.33,3.33,0,0,1-2,.52C70.61,63.81,71.09,63.38,71.69,63.38Z"/><path class="cls-2" d="M79.76,44.19A5.07,5.07,0,0,1,83,45.86c1.2,0,1.81.41,1.81,1.25.09,0,.13,0,.13.14a13,13,0,0,0-1.94,6v.41q.27,1.26.69,1.26h.84c1.3,0,3.47-1.76,6.53-5.29,0-.25.65-.81,2-1.67a2.57,2.57,0,0,1,1.11-1.53h.14a1.67,1.67,0,0,0,.28.84A15.25,15.25,0,0,1,92,51.77q-4.62,6-7.82,6c-1.93,0-3.36-1.12-4.31-3.34V54.2h-.42q-5.07,4.32-7.93,4.31h-.41q-2.72,0-3.48-2.92v-.28c0-2.52,1.9-5.17,5.7-7.92l3.9-2.51C77.26,44.56,78.09,44.33,79.76,44.19Zm-9,10.71v1c0,.19.11.28.28.28h.27c1.7,0,4-1.35,6.82-4q2.64-2.71,2.64-4.18V47.8c0-1.11-.42-1.67-1.25-1.67q-3.37,1.13-7.23,5.29A8.3,8.3,0,0,0,70.72,54.9Z"/><path class="cls-2" d="M111.61,31.39c1.57.44,2.36,1.08,2.36,1.91q0,1.81-2.36,5.08l.17.31a29.12,29.12,0,0,1-5.87,9.5c-1.7,1.87-2.54,3.09-2.54,3.65v.45c0,1.81.63,2.71,1.91,2.71q4.06.18,10.22-5,3.41-3.72,3.93-3.72a7.56,7.56,0,0,1-1.7,4,42.43,42.43,0,0,1-4.83,4.2c-2.93,2.11-5.3,3.17-7.13,3.17q-3.27,0-5.39-3.34a17.57,17.57,0,0,1-6.33,3.34H92.14c-2.2-.6-3.31-1.72-3.31-3.34a1.21,1.21,0,0,1-.17-.63q.8-3.51,6-7.44a9.6,9.6,0,0,1,4.91-1.74,7.43,7.43,0,0,0,1.91.49h.31a18.59,18.59,0,0,1,3-6.64,12.63,12.63,0,0,1,2.72-4Q110.1,31.39,111.61,31.39ZM91.82,53.58v1.07q0,.52,1.74.66Q95.62,55,99.09,52a5.42,5.42,0,0,0,1.29-1.92,3.94,3.94,0,0,1-.8-2.5V46.9a1.38,1.38,0,0,1-.49-.14q-2.88,0-6.78,5.39A4.4,4.4,0,0,0,91.82,53.58ZM105,44.71h.14q.58-.14,3.2-4.14l2.36-4.73v-.62c-1.41.32-3.32,3.32-5.7,9Z"/><path class="cls-2" d="M126.8,44.67h.28a2.21,2.21,0,0,1,1.39,1.53,34,34,0,0,0-1.21,9.36.12.12,0,0,0,.14.14l-.14.76c0,.53,0,1.55.14,3.06a2.47,2.47,0,0,0-.32.9,1.11,1.11,0,0,0,.18.63,53.8,53.8,0,0,1-.63,6.75l.94.14a5.14,5.14,0,0,0,1.36-.63h.45a.15.15,0,0,1,.17.17,12,12,0,0,1,2.61-.76l.45.31h.14q0-.66,5.35-1.25a1.61,1.61,0,0,1,1.22-.59h.18q0,.45.27.45l.63-.63,1.08.18h.31a2.68,2.68,0,0,1,1.53-.77.13.13,0,0,1,.14.14l1.84-.14h1.36l1.84-.62a5.29,5.29,0,0,1,.63.17,31.72,31.72,0,0,0,4.41-.94,1.88,1.88,0,0,0,.94.32,1,1,0,0,1,1.05-.63h.76l.63.49h.14c0-.33.82-.64,2.46-.94h.32l.59.45c.16-.39.31-.59.45-.59h.49c2.43,0,3.65-.15,3.65-.45l.76.14h.63a9.84,9.84,0,0,1,1.22-.32h1.21c.12,0,.18,0,.18-.14l.28.14h4.58c.82,0,1.89.06,3.24.18.51-.12.76-.22.76-.32a3.63,3.63,0,0,0,1.36.46,1.88,1.88,0,0,1,.94-.32h.45l1.08.18c0-.21.11-.32.28-.32s.17,0,.17.14l1.08-.14h.45a17.1,17.1,0,0,0,1.84.46c.14-.42.29-.63.46-.63h.13c.21,0,.32.16.32.49h.45l.62-.63h.77a17.35,17.35,0,0,1,2.43.31l.14-.31.77.14a2.55,2.55,0,0,0,1.08-.28.4.4,0,0,1,.45.45h.17l.45-.31h.77v.14l-.14.31h1.22c0-.6.19-.9.59-.9l.31.14h.31l1.85-.14.31.59a9.87,9.87,0,0,1,3.34-.77,2.47,2.47,0,0,0,1.25.49c0-.21.11-.31.28-.31H204l.45.31h.46l.62-.49,1.84.32a5.47,5.47,0,0,1,1.36-.32l.31.18.32-.18,3.2.32a2.33,2.33,0,0,0,1.21-.45h1.08a10.92,10.92,0,0,0,1.22.31h2l.76.59H219c0-.51.15-.77.45-.77a5,5,0,0,1,2.61.77h.14a4.18,4.18,0,0,0,1.7-.28l.9.14.63-.31.28.17a7.52,7.52,0,0,1,1.39-.17h.14a.15.15,0,0,1,.17.17l.77-.31a1.2,1.2,0,0,0,.59.14H229a.13.13,0,0,0,.14-.14,1.71,1.71,0,0,0,.91.31h.76v.28h.49a1,1,0,0,1,.59.17,1.18,1.18,0,0,1,.62-.17h.32c.14,0,.29.16.45.49a1.46,1.46,0,0,1-.63.14v.31c.3,0,.46.1.46.31v.14a6.71,6.71,0,0,1-1.36-.45,6.41,6.41,0,0,1-.63.14,1.41,1.41,0,0,1-.45-.14q-2,.13-2,.45l-.77-.14h-.17a.13.13,0,0,0-.14.14,6.89,6.89,0,0,0-1.39-.31,12.43,12.43,0,0,0-3.34.62h-8a.13.13,0,0,0-.14.14l-.31-.14h-5.67a8.57,8.57,0,0,0-1.36.14,1.38,1.38,0,0,0-.62-.14,4.8,4.8,0,0,0-1.53.32l-.91-.18h-.17a1.27,1.27,0,0,0-.76.18L202.5,63h-.45c-1,0-1.53.13-1.53.32l-.31-.14h-.46a1.51,1.51,0,0,0-.76.14l-.94-.14H197a16.1,16.1,0,0,0-2.12.28c-1,0-4.14,0-9.49.17-.09,0-.5-.06-1.22-.17l-.62.31c0-.14-.16-.29-.46-.45h-.13l-.94.45a2.46,2.46,0,0,0-1.22-.31,2.55,2.55,0,0,1-1.22.48,10,10,0,0,1-2.43-.48,2,2,0,0,1-1.08.62L174.51,64q-1.56.24-4,.45a1.18,1.18,0,0,0-.49-.17l-6.12.63-.28-.14q-2,.11-2,.27l-.28-.13h-.18c-.25,0-1.57.25-4,.76l-.31-.14h-.14l-4,.77-.28-.18q-12.56,1.71-18.05,3.06h-1.7a31.32,31.32,0,0,1-5.49,1.53,1.82,1.82,0,0,0-1.53,2c-.24,0-.55.92-.94,2.75-2,5.75-3.87,9.53-5.64,11.34a23.4,23.4,0,0,1-11.33,9.32,16.94,16.94,0,0,1-5.49,1.07h-1.08C98.07,96.73,95.78,96,94.36,95q-4.27-2.34-4.27-6.4,0-2.82,3.37-5.67a27.44,27.44,0,0,1,6.4-4.73,19.37,19.37,0,0,0,3.06-1.7q11.43-5,13-5a23.12,23.12,0,0,1,6.43-2.16c1.12-.11,1.67-.57,1.67-1.35v-.77l-.14-.9c0-.14.26-.4.77-.77l-.14-.76a1.38,1.38,0,0,0,.14-.49l-.14-.28.14-.76-.14-.63a1.41,1.41,0,0,0,.14-.45,5.33,5.33,0,0,1-.14-1.08h.14l-.14-.31v-.45l.28-.46-.14-.62.62-1.53-.76-.91V55.24l.28-1.07a6.26,6.26,0,0,1-.28-1.22h-.17q-3.69,5-4.42,5c-.9,1.53-2,2.3-3.23,2.3a2.68,2.68,0,0,1-2.89-2.61c.09-.3.2-.45.31-.45s0-.14-.17-.14l.17-1.08v-.94c.33,0,.84-1.22,1.53-3.65q2-5.36,3-5.36h.17c.6,0,.91.41.91,1.22q-3.34,7.13-3.34,9.18v.31l.14.77c1.13-.32,2.6-1.5,4.41-3.51q3.24-4.11,3.24-4.59a12.59,12.59,0,0,0,1.67-4.28A1.66,1.66,0,0,0,126.8,44.67ZM93.15,89.18v.63q1.48,5,8.55,5.66c1.65-.25,2.47-.46,2.47-.62l.76.14h.46l3.19-1.67.32.14h.45c0-.63.61-1,1.84-1.22a6.67,6.67,0,0,1,2.92-2.75c0-.69.77-1.46,2.3-2.29a1.79,1.79,0,0,0,.9-1.67c.23,0,.69-.66,1.36-2,.41-.72.88-1.08,1.39-1.08V82a1.31,1.31,0,0,1-.31-.49c.37-1.11.62-1.67.76-1.67.35,0,.56-.46.63-1.39a.13.13,0,0,0,.14-.14v-.76q.93,0,.93-1.53c.14,0,.29-.3.46-.91a.28.28,0,0,0,.31-.31,1.05,1.05,0,0,1-.17-.45.28.28,0,0,0,.31-.31,1.16,1.16,0,0,0-.14-.46c0-.72.25-1.07.76-1.07v-.46a.27.27,0,0,0-.31-.31h-.17a112.09,112.09,0,0,0-18.19,6.57Q93.15,84.66,93.15,89.18ZM140.4,65.5v.28A1.24,1.24,0,0,1,141,66l.13-.31-.31-.14Zm55.36-4v.18h.31c.14,0,.29-.17.45-.49h-.45C195.86,61.24,195.76,61.34,195.76,61.5Zm28.3-1.08h.45v.18h-.45Zm10.26.94a6.83,6.83,0,0,0,2.29.6v.48l-1.08-.17h-.31l-.76.17a1.41,1.41,0,0,1-.32-.48v-.28Z"/><path class="cls-4" d="M37.87,22.38s6.31-.87,7.27-1a72.53,72.53,0,0,1,7.53-.77c1.47,0,4.36-.67,5.22-.14a2.39,2.39,0,0,1,1.15,2c.13.83-.63,5.07-.57,5.86a3.63,3.63,0,0,1-.86,2.63c-.61.49-5.25.72-6.86.38l-9-1.86c-1-.21-3.29-.93-3.29-.93s3.13,3.83,3.94,5,3.17,4.82,3.41,5.29A10.07,10.07,0,0,1,46.29,40a37.12,37.12,0,0,0-1,3.65c-.23,1.25-1.46,3.28-1.7,4.21a22.08,22.08,0,0,1-1.71,3.34l-2.57-6.69c-.37-1-3.09-8.63-3.48-9.4s-2-5.42-2-5.42l-.85-2.65a14.42,14.42,0,0,0-1.71-.88,11,11,0,0,1-2.1-1.44,11.74,11.74,0,0,0-3.64-.61,33,33,0,0,1-5.24-.22c-.52-.07-6.15-.05-6.67-.12s-6.24,0-6.24,0l-7,.06a21.51,21.51,0,0,0,2.12-1.76c.51-.57,2.17-2.77,2.78-3.52s3.76-3.81,3.76-3.81,3.61.27,5.09.61,3,.67,4,1,2.71.69,2.71.69a60.15,60.15,0,0,1-5.65-6.81c-1.63-2.59-2.68-4.68-2.14-5.71s3.86-2.79,4.89-3.29a15.13,15.13,0,0,1,4.33-1,2.49,2.49,0,0,1,2,.9c.47.69,2.21,5.6,2.67,6s1.65,3.49,2,3.91,1.43,2.8,1.72,3.38a31.74,31.74,0,0,1,1.31,3.52,5.17,5.17,0,0,0,.4,1.05,5.22,5.22,0,0,1,1.92.93,13.09,13.09,0,0,0,2.2,1.66,4.37,4.37,0,0,1,1.37.26A.46.46,0,0,1,37.87,22.38Z"/><path class="cls-5" d="M22.6,2.82c2.36,4.4,5.16,7.47,8.19,12.23-.12-.3-.22-.55-.29-.68-.29-.58-1.42-2.95-1.72-3.38s-1.5-3.47-2-3.91-2.2-5.35-2.67-6A2.1,2.1,0,0,0,22.8.22,2.56,2.56,0,0,0,22.6,2.82Z"/><path class="cls-6" d="M20.35,16.62l.36.38S19,16.61,18,16.31c-.65-.19-1.49-.39-2.39-.61,3,2.2,6.91,4.56,7.51,8.45a14.2,14.2,0,0,0,2.32,0,11.77,11.77,0,0,1,3.62.6c-.21-.57.09-.95-.3-1.43A36.58,36.58,0,0,0,20.35,16.62Z"/><path class="cls-6" d="M33.74,29.71s.21.61.51,1.42c2.39-.9,4.52-.14,6.65.43-.95-1.2-2-2.51-2.36-2.93a18.42,18.42,0,0,0-5.64-1.55Z"/><path class="cls-5" d="M58,20.54l-.15-.1c-.86-.53-3.75.18-5.22.14a72.53,72.53,0,0,0-7.53.77c-.88.15-6.3.9-7.15,1l0,.06c2.62-.48,6.52-.15,10.25-.13C53.48,22.32,58.34,22,58,20.54Z"/><path class="cls-7" d="M39.92,22.18c-.21-.19-1,0-1.26.15.22.38,0,.64.32.89s1.09.23,1.52.55c-.29.26-1.07.06-1.48.25s-.93.37-.79.73.59.41.79.47c.54.18,1.07.33,1.62.5.82.27,1.66.4,2.48.66a12.15,12.15,0,0,0,1.2.42c.34.07.69,0,1,.17A2.89,2.89,0,0,1,44,27c-.8-.14-1.61-.22-2.39-.41a19.8,19.8,0,0,0-2.78-.69,4,4,0,0,0-1,0,4.48,4.48,0,0,0-.68.09.8.8,0,0,0,0,1.16.48.48,0,0,0,0,.38c-.42-.07-.61-.24-1-.09s-.11.31-.58.2c-.28-.06-.51-.24-.78-.31s-.47,0-.67-.06c.32-.52,1.17-.85,1.63-1.27a10.41,10.41,0,0,0,1.23-1.51,8.28,8.28,0,0,0,1-1.23,2.41,2.41,0,0,1,.79-1"/><path class="cls-7" d="M32.27,19c-.12-.06-.24-.22-.33-.26s-.24,0-.34,0A1,1,0,0,1,31,18.3,4.7,4.7,0,0,0,30,17.1c-.18.56.43,1.13.24,1.6-.08.19-.43.37-.6.47s-.07.2-.23.24a2.11,2.11,0,0,1-.61-.32,6,6,0,0,1-.81-1c-.41-.47-.87-.91-1.25-1.4-.51-.65-.93-1.37-1.39-2-.69-1-1.12-2.06-1.83-3-.2.41.14.88.28,1.27a9.77,9.77,0,0,0,.65,1.81c.27.43.72.76.95,1.22s.31.84.46,1.24a5.8,5.8,0,0,0,1.3,2.09c.31.32,1,1.12,1,1.56A7.26,7.26,0,0,0,27,20.36c-.36.4.74.59.36.88-.21.17-.83-.44-1.1-.39a12,12,0,0,0,1.54,1.31,6.52,6.52,0,0,1,.63.78c.66.78.6-.72.76-1.17a3.52,3.52,0,0,1,.95-1.69A3.08,3.08,0,0,1,32.27,19Z"/><path class="cls-8" d="M22.89,3.21a2.48,2.48,0,0,1,0-2.86c-1.22-.82-4.76.56-6,1.17C16,2,15.41,2.7,14.51,3.19a3,3,0,0,0-1.85,2.38,5.25,5.25,0,0,0,1.39,3.17c.29-.37.06-.66.21-1s.47-.48.72-.7c.84-.76,1.41-.56,2.5-.91.56-.18.73-.53,1.27-.86s1.29-.42,1.83-.74a4.62,4.62,0,0,1,1.17-.62C22.23,3.74,22.57,3.72,22.89,3.21Z"/><path class="cls-8" d="M54.12,21.89a14.09,14.09,0,0,0,3.44-.6c.78-.29.85-.52,1.25.44a3.74,3.74,0,0,1,.25,1.67c-.05,1.56-.5,3.13-.61,4.68a5.69,5.69,0,0,1-.3,1.93c-.34.95-.47.93-1.52,1.11a9.19,9.19,0,0,1-4.42.08c.6-.55,1.6-.3,1.71-1.45,0-.32-.25-.75-.25-1.1a2.85,2.85,0,0,1,.39-1.26,6.49,6.49,0,0,0,.48-2.3A19.22,19.22,0,0,1,54.12,21.89Z"/><path class="cls-8" d="M30.39,20.08c1.25-2.63,4.53.52,5.89,1.23,1.07.56,2.22.77,1.54,2.22-1.06,2.25-1.2-.12-2.31-.77A8.23,8.23,0,0,1,34,22a9.25,9.25,0,0,0-1.11-.8A20.68,20.68,0,0,1,30.39,20.08Z"/><path class="cls-8" d="M29.05,21.94a3.83,3.83,0,0,0,0,2.2c.26.87,1.05,1,1.78,1.43,1.5.81,3,2.18,4.32.61-.46-.31-.57.13-1,.08a3.26,3.26,0,0,1-.9-.43c.26-.35.3-1.12-.13-1.32s-.81.58-1.12,1c-1-.72.36-2.35-.72-3A3.28,3.28,0,0,0,30.34,24C29.4,24.14,29.73,22.3,29.05,21.94Z"/><path class="cls-9" d="M29.76,20.77c.71-1,1.12.43,1.59.64.1.05.49-.18.67-.13s.31.22.47.28c.34.13.81.36,1.18.51a6.91,6.91,0,0,1,1.75,1.31,5.44,5.44,0,0,1,.76.67c.25.31,0,.63.44.9-.7,1.73-2.73-.84-3.34-1.35a15.28,15.28,0,0,0-2.16-1.16,13.37,13.37,0,0,0-1.89-1C29.24,21.36,29.27,21.26,29.76,20.77Z"/><path class="cls-9" d="M50.93,22.2c1.39.26,3.09-.41,4.42-.08-.38.53-.19.64-.23,1.1s0,.66-.07,1.05c-.09.93.32,1.71.29,2.64,0,1.41-1.25,3.14-.87,4.58a6.57,6.57,0,0,0-3-.39,6.56,6.56,0,0,1-2.61-.4,2.26,2.26,0,0,0,1.27-1.83c-.07-.36-.47-.7-.54-1.15a4.18,4.18,0,0,1,0-1.32c.36-.79,1.17-1.16,1.22-2.16C50.92,23.44,50.22,23.08,50.93,22.2Z"/><path class="cls-9" d="M25.58,7.42c-1.71-.78-1.8-3.61-3.21-4.72-.36.38-.39-.07-.75.07s-.42.37-.68.55A6.33,6.33,0,0,1,18.79,4c-.89.3-1.21.85-2,1.26s-1.72.49-1.88,1.3c-.55-.08-1.29.8-1.47,1.25A16.49,16.49,0,0,0,15,10.29c.48.67,1.13,2,1.88,2.42a4.61,4.61,0,0,1,1.41-1.94c.61-.5,1-.39,1.67-.67s.44-.81.82-1.16a12.37,12.37,0,0,1,1.27-.67c.37-.24.64-.62,1-.84A3.41,3.41,0,0,1,25.58,7.42Z"/><path class="cls-9" d="M13.46,15.08a18.33,18.33,0,0,0-2.85-.43c-.57-.06-.6-.07-.9.29a14.72,14.72,0,0,0-1,1.28c-.29.45-.18.76-.56,1.19a6.8,6.8,0,0,0-1,1.28c-.62,1.13-.94,2.32-2.06,3.1a14.17,14.17,0,0,0-2.24,1.89,28.32,28.32,0,0,1,6.36.21c-.2-1,.49-1.61,1.41-2.05.46-.23.79-.13.95-.57,0-.12-.06-.46,0-.61,0-.3.24-.47.31-.74a5.09,5.09,0,0,1,.4-1.53c.29-.54.29-1,.55-1.58a5.89,5.89,0,0,1,.3-.84C13.33,15.6,13.77,15.85,13.46,15.08Z"/><path class="cls-9" d="M43.49,35c.7.51.92,1.65,1.38,2.36.21.33.48.61.7,1s.29.52,0,.87c-.12.16-.38.23-.51.4s0,.42-.2.6-.48.08-.69.26-.23.55-.31.83a5.91,5.91,0,0,1-.65,1.61c-.37.52-1.09.81-1.4,1.38-.15.27-.15.58-.29.87a5.75,5.75,0,0,1-.4.55c-.24.5-.19,1.09-.42,1.58-.61-.25-.91-1.88-1.08-2.47a18.69,18.69,0,0,0-1.06-2.68c-.14-.31-.6-.93-.43-1.3.3-.65.8.3,1.3.11s.92-1.54,1.06-1.9c.18-.52,0-.37.36-.65a4,4,0,0,1,.48-.3c.32-.12,1-.15,1.2-.5s0-.68.07-.95A3.84,3.84,0,0,1,43.49,35Z"/><path class="cls-10" d="M35.9,21.11c-1.37-1.26-3.27-3.1-5.17-1.83s-2.79,3.61-1.59,5.58c.09.15.36.07.3-.11a4.39,4.39,0,0,1-.25-2.92,4.17,4.17,0,0,1,2.45-2.56c1.64-.45,2.77,1.54,4.15,2,.1,0,.19-.11.11-.18Z"/><path class="cls-10" d="M29.26,25a31.11,31.11,0,0,0,3.05,1.91,3.08,3.08,0,0,0,1.3.49c1.28.07,2.42-1.28,3.23-2.08S39,23.17,38.31,22a2.06,2.06,0,0,0-2.56-.47.11.11,0,0,0,0,.21,4.78,4.78,0,0,0,.84.08,1.85,1.85,0,0,1,.75.08,1.39,1.39,0,0,1,.28,1.73,10.76,10.76,0,0,1-2.51,2.62,2.06,2.06,0,0,1-2.73.21,33.21,33.21,0,0,0-3-1.66c-.13,0-.19.14-.1.21Z"/><path class="cls-10" d="M30.82,25.49a9.63,9.63,0,0,1,.65-2.42c0-.06-.06-.12-.1-.07a3.45,3.45,0,0,0-.67,2.48c0,.08.12.09.12,0Z"/><path class="cls-10" d="M32.25,26.43a6.67,6.67,0,0,0,.29-.74,6.77,6.77,0,0,0,.3-.82.1.1,0,0,0-.16-.1A2.52,2.52,0,0,0,32,26.33c0,.13.17.25.24.1Z"/><path class="cls-10" d="M38.82,22.29s0,0,0,0,0,0,0,0Z"/><path class="cls-10" d="M37.9,22.31c1.67.36,3.55.05,5.26.1,2.27.08,4.52.18,6.79.06,1.95-.1,3.89-.32,5.84-.48a3.92,3.92,0,0,0,3-1.12.24.24,0,0,0-.08-.32A6.47,6.47,0,0,0,55,20.21c-1.83.16-3.66.2-5.49.39s-3.75.48-5.62.76-4,.48-5.88.95a.19.19,0,0,0,0,.37,37.63,37.63,0,0,0,4.7-.64c1.76-.26,3.52-.54,5.28-.77s3.66-.36,5.5-.46c.67,0,1.34-.1,2-.15.39,0,2.08-.27,2.35.08.4.53-3.25.89-3.69.94-1.93.21-3.86.4-5.8.46s-3.86,0-5.79-.07c-1.56,0-3.16.27-4.71.09-.08,0-.1.13,0,.15Z"/><path class="cls-10" d="M34.33,27.37a107.3,107.3,0,0,0,14,3.68,37.79,37.79,0,0,0,6.19.56c1.31,0,2.89.09,3.81-1,.21-.25-.13-.62-.35-.37-1.19,1.3-3.45,1-5.05.9a38,38,0,0,1-6.38-.82c-2-.43-4-.88-5.91-1.39a61.32,61.32,0,0,0-6.25-1.69.07.07,0,0,0,0,.14Z"/><path class="cls-10" d="M58.51,20.72a16.23,16.23,0,0,0,.25,1.82,16.6,16.6,0,0,1-.16,2.23,53.17,53.17,0,0,1-.74,5.61c-.06.26.34.39.41.11A32.54,32.54,0,0,0,59.09,25a9,9,0,0,0-.37-4.32.11.11,0,0,0-.21,0Z"/><path class="cls-10" d="M32.2,18.89a7.91,7.91,0,0,0-1.43-3.62c-1-1.65-1.83-3.39-3-5C26,7.76,23.53,4.94,22.89,1.84c-.08-.38-.33-1.35.6-1.11.19.06.48.66.58.82A14.37,14.37,0,0,1,24.79,3C25.54,4.6,26.25,6.25,27,7.89c.85,1.86,1.74,3.68,2.68,5.5S31,17.15,31.89,19c.15.31.6.06.47-.25-.94-2.19-1.55-4.34-2.7-6.45S27.57,8,26.59,5.81c-.32-.7-2.24-6.55-3.82-5.69-1.92,1,1.76,6.17,2.35,7C26.39,9,27.85,10.76,29,12.7c.57,1,1.06,2,1.64,2.89A7.85,7.85,0,0,1,32,18.88c0,.14.23.15.22,0Z"/><path class="cls-10" d="M23.17.21c-2.48-.79-5.6.79-7.7,2-1,.59-2.4,1.31-2.76,2.54A4.55,4.55,0,0,0,13.51,8a28.57,28.57,0,0,0,6.33,8.4c1.45,1.22,3.06,2.18,4.56,3.32l2.21,1.73c.73.56,1.19,1.44,2,1.85a.21.21,0,0,0,.22-.36c-.57-.44-.93-1.06-1.47-1.53s-1.16-.87-1.73-1.33c-1.18-.94-2.44-1.74-3.66-2.63a24.22,24.22,0,0,1-6.7-7.41A29,29,0,0,1,13.5,7,2.63,2.63,0,0,1,13.71,4a7.25,7.25,0,0,1,1.8-1.3A13.85,13.85,0,0,1,23.16.32a.06.06,0,0,0,0-.11Z"/><path class="cls-10" d="M29.64,20.55C28.46,19,27.12,17.63,26,16s-1.75-3.14-2.73-4.64c-.08-.13-.32-.06-.26.11a19.9,19.9,0,0,0,2.89,5.14,17.22,17.22,0,0,0,3.63,4c.07.05.13-.05.09-.11Z"/><path class="cls-10" d="M37,25.09a31.33,31.33,0,0,0,5.3,1.48c1.13.29,2.52.76,3.65.29a.07.07,0,0,0,0-.13,13.15,13.15,0,0,1-4-.58c-1.61-.42-3.23-.71-4.8-1.27-.12,0-.21.16-.09.21Z"/><path class="cls-10" d="M21.53,17.21a34.87,34.87,0,0,0-6.1-1.84,26.48,26.48,0,0,0-6.5-.8c-.18,0-.25.29,0,.32,2.2.44,4.47.4,6.68.93a53.2,53.2,0,0,0,5.93,1.53c.07,0,.11-.11,0-.14Z"/><path class="cls-10" d="M9,14.57a5.86,5.86,0,0,0-1.75,1.69c-.76.87-1.59,1.69-2.37,2.56A57.54,57.54,0,0,1,.17,23.65a.15.15,0,0,0,.17.23c1.77-.93,3.12-2.94,4.41-4.43S7.59,16.24,9,14.65c0,0,0-.11-.07-.08Z"/><path class="cls-10" d="M.08,24c4.84-.34,9.74,0,14.59-.1,2.44,0,4.88.15,7.31.35,1.21.1,2.41.23,3.61.26a11,11,0,0,1,3.43.37c.2.07.34-.24.15-.33-1.71-.85-4.1-.48-6-.64-2.67-.22-5.35-.46-8-.42s-5.05.17-7.58.1a40.31,40.31,0,0,0-7.53.25c-.09,0-.07.17,0,.16Z"/><path class="cls-10" d="M32.9,27.28a18.3,18.3,0,0,0,1.46,4.95c.8,2.06,1.65,4.09,2.42,6.16,1.56,4.2,3.46,8.25,4.73,12.55a.16.16,0,0,0,.31-.07c-.8-4.19-3-8.14-4.49-12.1S34.39,31.12,33,27.27c0-.05-.11-.05-.1,0Z"/><path class="cls-10" d="M38.16,28.59a51.1,51.1,0,0,1,8,11.32.16.16,0,0,0,.3-.12,8.68,8.68,0,0,0-1.35-2.57c-.62-1-1.3-2-2-2.95a28.73,28.73,0,0,0-4.81-5.84c-.11-.1-.28,0-.17.16Z"/><path class="cls-10" d="M46.12,39.78A49.16,49.16,0,0,0,44.49,45a45.83,45.83,0,0,1-2.77,6.1c-.08.15.14.29.23.14a34.59,34.59,0,0,0,4.3-11.39c0-.07-.09-.14-.13-.06Z"/><circle class="cls-2" cx="134.99" cy="50.64" r="2.66"/></g></g></g></svg>